M48
; DRILL file {KiCad 7.0.2-0} date 2023 July 16, Sunday 18:15:42
; FORMAT={-:-/ absolute / inch / decimal}
; #@! TF.CreationDate,2023-07-16T18:15:42+02:00
; #@! TF.GenerationSoftware,Kicad,Pcbnew,7.0.2-0
; #@! TF.FileFunction,Plated,1,2,PTH
FMAT,2
INCH
; #@! TA.AperFunction,Plated,PTH,ViaDrill
T1C0.0157
; #@! TA.AperFunction,Plated,PTH,ComponentDrill
T2C0.0157
; #@! TA.AperFunction,Plated,PTH,ComponentDrill
T3C0.0430
; #@! TA.AperFunction,Plated,PTH,ComponentDrill
T4C0.0433
; #@! TA.AperFunction,Plated,PTH,ComponentDrill
T5C0.0500
; #@! TA.AperFunction,Plated,PTH,ComponentDrill
T6C0.0866
%
G90
G05
T1
X9.5086Y-4.3856
X9.5086Y-5.3856
X9.5086Y-5.0856
X9.5086Y-4.4856
X9.5086Y-4.9856
X9.5086Y-4.5856
X9.5086Y-4.6856
X9.5086Y-4.7856
X9.5086Y-5.2856
X9.5086Y-5.4856
X9.5086Y-4.8856
X9.5086Y-5.1856
X9.5686Y-4.7856
X9.5686Y-5.1856
X9.5686Y-5.4856
X9.5686Y-4.4856
X9.5686Y-4.9856
X9.5686Y-5.2856
X9.5686Y-5.3856
X9.5686Y-4.3856
X9.5686Y-4.5856
X9.5686Y-4.8856
X9.5686Y-5.0856
X9.5686Y-4.6856
T2
X5.9711Y-5.0114
X5.9733Y-4.9617
X6.0047Y-5.048
X6.0099Y-4.9281
X6.0544Y-5.0502
X6.0596Y-4.9303
X6.091Y-5.0166
X6.0932Y-4.9669
X6.1731Y-5.5663
X6.1752Y-5.5166
X6.2067Y-5.6029
X6.2119Y-5.483
X6.2563Y-5.6051
X6.2616Y-5.4852
X6.293Y-5.5715
X6.2952Y-5.5219
X7.5839Y-3.8221
X7.6029Y-3.7761
X7.6029Y-3.868
X7.6489Y-3.7571
X7.6489Y-3.887
X7.6948Y-3.7761
X7.6948Y-3.868
X7.7138Y-3.8221
X9.0688Y-6.0778
X9.0753Y-6.127
X9.099Y-6.0383
X9.1147Y-6.1573
X9.1483Y-6.0318
X9.164Y-6.1508
X9.1878Y-6.0621
X9.1943Y-6.1114
T3
X9.4749Y-4.2998
X9.6024Y-4.2998
T4
X9.2386Y-4.3856
X9.2386Y-4.3856
X9.2386Y-4.4856
X9.2386Y-4.5856
X9.2386Y-4.6856
X9.2386Y-4.7856
X9.2386Y-4.8856
X9.2386Y-4.9856
X9.2386Y-5.0856
X9.2386Y-5.1856
X9.2386Y-5.2856
X9.2386Y-5.3856
X9.2386Y-5.4856
X9.8386Y-4.3856
X9.8386Y-4.3856
X9.8386Y-4.4856
X9.8386Y-4.5856
X9.8386Y-4.6856
X9.8386Y-4.7856
X9.8386Y-4.8856
X9.8386Y-4.9856
X9.8386Y-5.0856
X9.8386Y-5.1856
X9.8386Y-5.2856
X9.8386Y-5.3856
X9.8386Y-5.4856
T5
X5.4005Y-4.9802
X5.6137Y-4.9906
X5.6137Y-4.9906
X5.6294Y-5.6092
X5.7704Y-4.8456
X5.8426Y-5.6195
X5.8426Y-5.6195
X5.8583Y-6.2381
X5.9993Y-5.4745
X6.0715Y-6.2485
X6.0715Y-6.2485
X6.1415Y-3.992
X6.2282Y-6.1034
X6.2577Y-4.6511
X6.3497Y-4.0392
X6.3497Y-4.0392
X6.3739Y-5.3102
X6.4659Y-4.6983
X6.4659Y-4.6983
X6.5292Y-3.9236
X6.5821Y-5.3574
X6.5821Y-5.3574
X6.6454Y-4.5827
X6.7616Y-5.2418
X6.9591Y-3.611
X7.0174Y-4.2778
X7.0758Y-4.9445
X7.1624Y-3.6762
X7.1624Y-3.6762
X7.2207Y-4.343
X7.2207Y-4.343
X7.2791Y-5.0097
X7.2791Y-5.0097
X7.3513Y-3.5767
X7.4096Y-4.2434
X7.468Y-4.9102
X7.8457Y-4.4166
X7.8457Y-5.0858
X7.8457Y-3.7473
X8.0426Y-4.4992
X8.0426Y-4.4992
X8.0426Y-5.1685
X8.0426Y-5.1685
X8.0426Y-3.8299
X8.0426Y-3.8299
X8.2394Y-4.4166
X8.2394Y-5.0858
X8.2394Y-3.7473
X8.5224Y-6.0862
X8.5544Y-4.5281
X8.5544Y-5.1974
X8.5544Y-3.8588
X8.6911Y-6.217
X8.6911Y-6.217
X8.7512Y-4.6108
X8.7512Y-4.6108
X8.7512Y-5.2801
X8.7512Y-5.2801
X8.7512Y-3.9415
X8.7512Y-3.9415
X8.9027Y-6.1881
X8.9481Y-4.5281
X8.9481Y-5.1974
X8.9481Y-3.8588
X9.2343Y-6.3088
X9.3777Y-6.4669
X9.3777Y-6.4669
X9.5911Y-6.4752
T6
X6.0321Y-4.9891
X6.2341Y-5.5441
X7.6489Y-3.8221
X9.1315Y-6.0946
T0
M30
