%TF.GenerationSoftware,KiCad,Pcbnew,7.0.2-0*%
%TF.CreationDate,2023-07-16T18:15:17+02:00*%
%TF.ProjectId,lambbt_finished,6c616d62-6274-45f6-9669-6e6973686564,v1.0.0*%
%TF.SameCoordinates,Original*%
%TF.FileFunction,Paste,Top*%
%TF.FilePolarity,Positive*%
%FSLAX46Y46*%
G04 Gerber Fmt 4.6, Leading zero omitted, Abs format (unit mm)*
G04 Created by KiCad (PCBNEW 7.0.2-0) date 2023-07-16 18:15:17*
%MOMM*%
%LPD*%
G01*
G04 APERTURE LIST*
G04 Aperture macros list*
%AMRotRect*
0 Rectangle, with rotation*
0 The origin of the aperture is its center*
0 $1 length*
0 $2 width*
0 $3 Rotation angle, in degrees counterclockwise*
0 Add horizontal line*
21,1,$1,$2,0,0,$3*%
G04 Aperture macros list end*
%ADD10RotRect,2.600000X2.600000X10.000000*%
%ADD11RotRect,2.600000X2.600000X5.000000*%
%ADD12R,2.600000X2.600000*%
%ADD13RotRect,2.600000X2.600000X20.000000*%
%ADD14RotRect,2.600000X2.600000X335.000000*%
%ADD15RotRect,2.600000X2.600000X345.000000*%
%ADD16R,1.700000X0.900000*%
%ADD17R,1.000000X0.800000*%
%ADD18R,0.700000X1.500000*%
G04 APERTURE END LIST*
D10*
%TO.C,S6*%
X162449389Y-90356926D03*
X151456885Y-94529140D03*
%TD*%
D11*
%TO.C,S9*%
X184154962Y-81285457D03*
X172840656Y-84483735D03*
%TD*%
%TO.C,S7*%
X187118255Y-115156080D03*
X175803949Y-118354358D03*
%TD*%
D12*
%TO.C,S10*%
X207556329Y-119430484D03*
X196006329Y-121630484D03*
%TD*%
%TO.C,S15*%
X225556330Y-88263820D03*
X214006330Y-90463820D03*
%TD*%
D13*
%TO.C,S1*%
X153241416Y-146455502D03*
X143140411Y-152473158D03*
%TD*%
D12*
%TO.C,S14*%
X225556329Y-105263815D03*
X214006329Y-107463815D03*
%TD*%
D14*
%TO.C,S17*%
X246170261Y-154904664D03*
X234772646Y-152017301D03*
%TD*%
D15*
%TO.C,S16*%
X226984711Y-147314188D03*
X215258866Y-146449865D03*
%TD*%
D10*
%TO.C,S5*%
X165401409Y-107098657D03*
X154408905Y-111270871D03*
%TD*%
D12*
%TO.C,S13*%
X225556329Y-122263815D03*
X214006329Y-124463815D03*
%TD*%
D13*
%TO.C,S2*%
X147427073Y-130480726D03*
X137326068Y-136498382D03*
%TD*%
D10*
%TO.C,S4*%
X168353426Y-123840390D03*
X157360922Y-128012604D03*
%TD*%
D16*
%TO.C,*%
X250281330Y-105613817D03*
X250281330Y-109013817D03*
%TD*%
D12*
%TO.C,S12*%
X207556331Y-85430481D03*
X196006331Y-87630481D03*
%TD*%
D11*
%TO.C,S8*%
X185636609Y-98220770D03*
X174322303Y-101419048D03*
%TD*%
D12*
%TO.C,S11*%
X207556328Y-102430481D03*
X196006328Y-104630481D03*
%TD*%
D13*
%TO.C,S3*%
X141612730Y-114505951D03*
X131511725Y-120523607D03*
%TD*%
D17*
%TO.C,*%
X245931331Y-106383818D03*
X245931331Y-104173818D03*
X238631331Y-106383818D03*
X238631331Y-104173818D03*
D18*
X244531331Y-107033818D03*
X241531331Y-107033818D03*
X240031331Y-107033818D03*
%TD*%
M02*
