%TF.GenerationSoftware,KiCad,Pcbnew,7.0.2-0*%
%TF.CreationDate,2023-07-16T18:15:17+02:00*%
%TF.ProjectId,lambbt_finished,6c616d62-6274-45f6-9669-6e6973686564,v1.0.0*%
%TF.SameCoordinates,Original*%
%TF.FileFunction,Profile,NP*%
%FSLAX46Y46*%
G04 Gerber Fmt 4.6, Leading zero omitted, Abs format (unit mm)*
G04 Created by KiCad (PCBNEW 7.0.2-0) date 2023-07-16 18:15:17*
%MOMM*%
%LPD*%
G01*
G04 APERTURE LIST*
%TA.AperFunction,Profile*%
%ADD10C,0.150000*%
%TD*%
G04 APERTURE END LIST*
D10*
X190980515Y-80993440D02*
G75*
G03*
X191974078Y-81880483I993585J112940D01*
G01*
X231281328Y-84713817D02*
X215281331Y-84713816D01*
X190980479Y-80993444D02*
X190655039Y-78130999D01*
X128266158Y-116650054D02*
X145827306Y-164898907D01*
X151008853Y-107308163D02*
G75*
G03*
X151652734Y-106201080I-341953J939663D01*
G01*
X213281330Y-81880488D02*
X191974079Y-81880482D01*
X245792395Y-171446579D02*
G75*
G03*
X246023908Y-171131227I-674695J737979D01*
G01*
X145827313Y-164898904D02*
G75*
G03*
X146635057Y-165548146I939687J342004D01*
G01*
X170715246Y-79908002D02*
X171126938Y-84288636D01*
X214281329Y-83713815D02*
X214281325Y-82880482D01*
X214281285Y-83713815D02*
G75*
G03*
X215281328Y-84713815I1000015J15D01*
G01*
X170304976Y-85367011D02*
X149738235Y-88993480D01*
X232281285Y-85713818D02*
G75*
G03*
X231281328Y-84713815I-999985J18D01*
G01*
X253671787Y-154730304D02*
G75*
G03*
X253765475Y-154307688I-906287J422604D01*
G01*
X245792410Y-171446599D02*
G75*
G03*
X146635057Y-165548147I-57983370J-138339911D01*
G01*
X128863805Y-115368274D02*
G75*
G03*
X128266159Y-116650054I342095J-939726D01*
G01*
X232281325Y-102713374D02*
G75*
G03*
X233281765Y-103713375I999975J-26D01*
G01*
X189574287Y-77247772D02*
X171623702Y-78818245D01*
X148926001Y-90145724D02*
X151652734Y-106201080D01*
X214281313Y-82880482D02*
G75*
G03*
X213281331Y-81880487I-1000013J-18D01*
G01*
X149738235Y-88993481D02*
G75*
G03*
X148926002Y-90145729I173665J-984819D01*
G01*
X253765476Y-154307688D02*
X253765476Y-104704820D01*
X171623695Y-78818165D02*
G75*
G03*
X170715246Y-79908002I87205J-996235D01*
G01*
X253765479Y-104704820D02*
G75*
G03*
X252765035Y-103704821I-999979J20D01*
G01*
X170304979Y-85367029D02*
G75*
G03*
X171126939Y-84288637I-173679J984829D01*
G01*
X252765035Y-103704820D02*
X233281769Y-103713378D01*
X151008868Y-107308203D02*
X128863829Y-115368339D01*
X246023908Y-171131227D02*
X253671784Y-154730303D01*
X190655026Y-78131000D02*
G75*
G03*
X189574288Y-77247770I-993626J-113000D01*
G01*
X232281329Y-102713374D02*
X232281328Y-85713818D01*
M02*
