M48
; DRILL file {KiCad 7.0.2-0} date 2023 July 16, Sunday 18:15:42
; FORMAT={-:-/ absolute / inch / decimal}
; #@! TF.CreationDate,2023-07-16T18:15:42+02:00
; #@! TF.GenerationSoftware,Kicad,Pcbnew,7.0.2-0
; #@! TF.FileFunction,NonPlated,1,2,NPTH
FMAT,2
INCH
; #@! TA.AperFunction,NonPlated,NPTH,ComponentDrill
T1C0.0354
; #@! TA.AperFunction,NonPlated,NPTH,ComponentDrill
T2C0.0670
; #@! TA.AperFunction,NonPlated,NPTH,ComponentDrill
T3C0.1181
; #@! TA.AperFunction,NonPlated,NPTH,ComponentDrill
T4C0.1350
%
G90
G05
T1
X9.4796Y-4.1446
X9.4796Y-4.1446
X9.5977Y-4.1446
X9.5977Y-4.1446
T2
X5.3308Y-4.8464
X5.3308Y-4.8464
X5.5597Y-5.4753
X5.5597Y-5.4753
X5.7377Y-4.6983
X5.7377Y-4.6983
X5.7886Y-6.1042
X5.7886Y-6.1042
X5.9666Y-5.3272
X5.9666Y-5.3272
X6.0961Y-3.848
X6.0961Y-3.848
X6.1956Y-5.9561
X6.1956Y-5.9561
X6.2123Y-4.5072
X6.2123Y-4.5072
X6.3285Y-5.1663
X6.3285Y-5.1663
X6.5226Y-3.7728
X6.5226Y-3.7728
X6.6388Y-4.432
X6.6388Y-4.432
X6.755Y-5.0911
X6.755Y-5.0911
X6.9265Y-3.4637
X6.9265Y-3.4637
X6.9848Y-4.1304
X6.9848Y-4.1304
X7.0431Y-4.7972
X7.0431Y-4.7972
X7.3579Y-3.4259
X7.3579Y-3.4259
X7.4162Y-4.0927
X7.4162Y-4.0927
X7.4745Y-4.7594
X7.4745Y-4.7594
X7.826Y-4.2669
X7.826Y-4.2669
X7.826Y-4.9362
X7.826Y-4.9362
X7.826Y-3.5977
X7.826Y-3.5977
X8.2591Y-4.2669
X8.2591Y-4.2669
X8.2591Y-4.9362
X8.2591Y-4.9362
X8.2591Y-3.5977
X8.2591Y-3.5977
X8.5347Y-4.3785
X8.5347Y-4.3785
X8.5347Y-5.0478
X8.5347Y-5.0478
X8.5347Y-3.7092
X8.5347Y-3.7092
X8.5421Y-5.9366
X8.5421Y-5.9366
X8.9604Y-6.0487
X8.9604Y-6.0487
X8.9678Y-4.3785
X8.9678Y-4.3785
X8.9678Y-5.0478
X8.9678Y-5.0478
X8.9678Y-3.7092
X8.9678Y-3.7092
X9.2796Y-6.1649
X9.2796Y-6.1649
X9.6721Y-6.3479
X9.6721Y-6.3479
T3
X5.2988Y-4.7009
X5.4541Y-4.5522
X5.4541Y-4.5522
X5.5277Y-5.3299
X5.6687Y-4.5663
X5.6831Y-5.1811
X5.6831Y-5.1811
X5.7566Y-5.9588
X5.8977Y-5.1952
X5.912Y-5.8101
X5.912Y-5.8101
X6.0898Y-3.6992
X6.1266Y-5.8241
X6.2061Y-4.3584
X6.2687Y-3.5797
X6.2687Y-3.5797
X6.3223Y-5.0175
X6.3849Y-4.2389
X6.3849Y-4.2389
X6.4776Y-3.6309
X6.5011Y-4.898
X6.5011Y-4.898
X6.5938Y-4.29
X6.71Y-4.9491
X6.9332Y-3.3149
X6.9915Y-3.9816
X7.0499Y-4.6484
X7.1217Y-3.2115
X7.1217Y-3.2115
X7.1801Y-3.8782
X7.1801Y-3.8782
X7.2384Y-4.5449
X7.2384Y-4.5449
X7.3254Y-3.2806
X7.3837Y-3.9473
X7.4421Y-4.6141
X7.8457Y-4.1193
X7.8457Y-4.7886
X7.8457Y-3.45
X8.0426Y-4.0327
X8.0426Y-4.0327
X8.0426Y-4.702
X8.0426Y-4.702
X8.0426Y-3.3634
X8.0426Y-3.3634
X8.2394Y-4.1193
X8.2394Y-4.7886
X8.2394Y-3.45
X8.5544Y-4.2309
X8.5544Y-4.9002
X8.5544Y-3.5616
X8.5993Y-5.7991
X8.7512Y-4.1442
X8.7512Y-4.1442
X8.7512Y-4.8135
X8.7512Y-4.8135
X8.7512Y-3.475
X8.7512Y-3.475
X8.8119Y-5.7664
X8.8119Y-5.7664
X8.9481Y-4.2309
X8.9481Y-4.9002
X8.9481Y-3.5616
X8.9796Y-5.901
X9.3599Y-6.0394
X9.5749Y-6.0441
X9.5749Y-6.0441
X9.7167Y-6.2058
T4
X5.5343Y-4.7723
X5.5343Y-4.7723
X5.7632Y-5.4013
X5.7632Y-5.4013
X5.9921Y-6.0302
X5.9921Y-6.0302
X6.3093Y-3.8104
X6.3093Y-3.8104
X6.4256Y-4.4696
X6.4256Y-4.4696
X6.5418Y-5.1287
X6.5418Y-5.1287
X7.1422Y-3.4448
X7.1422Y-3.4448
X7.2005Y-4.1116
X7.2005Y-4.1116
X7.2588Y-4.7783
X7.2588Y-4.7783
X8.0426Y-4.2669
X8.0426Y-4.2669
X8.0426Y-4.9362
X8.0426Y-4.9362
X8.0426Y-3.5977
X8.0426Y-3.5977
X8.7512Y-4.3785
X8.7512Y-4.3785
X8.7512Y-5.0478
X8.7512Y-5.0478
X8.7512Y-3.7092
X8.7512Y-3.7092
X8.7512Y-5.9927
X8.7512Y-5.9927
X9.4759Y-6.2564
X9.4759Y-6.2564
T0
M30
