%TF.GenerationSoftware,KiCad,Pcbnew,7.0.2-0*%
%TF.CreationDate,2023-07-16T18:15:17+02:00*%
%TF.ProjectId,lambbt_finished,6c616d62-6274-45f6-9669-6e6973686564,v1.0.0*%
%TF.SameCoordinates,Original*%
%TF.FileFunction,Soldermask,Bot*%
%TF.FilePolarity,Negative*%
%FSLAX46Y46*%
G04 Gerber Fmt 4.6, Leading zero omitted, Abs format (unit mm)*
G04 Created by KiCad (PCBNEW 7.0.2-0) date 2023-07-16 18:15:17*
%MOMM*%
%LPD*%
G01*
G04 APERTURE LIST*
G04 Aperture macros list*
%AMRoundRect*
0 Rectangle with rounded corners*
0 $1 Rounding radius*
0 $2 $3 $4 $5 $6 $7 $8 $9 X,Y pos of 4 corners*
0 Add a 4 corners polygon primitive as box body*
4,1,4,$2,$3,$4,$5,$6,$7,$8,$9,$2,$3,0*
0 Add four circle primitives for the rounded corners*
1,1,$1+$1,$2,$3*
1,1,$1+$1,$4,$5*
1,1,$1+$1,$6,$7*
1,1,$1+$1,$8,$9*
0 Add four rect primitives between the rounded corners*
20,1,$1+$1,$2,$3,$4,$5,0*
20,1,$1+$1,$4,$5,$6,$7,0*
20,1,$1+$1,$6,$7,$8,$9,0*
20,1,$1+$1,$8,$9,$2,$3,0*%
%AMFreePoly0*
4,1,14,0.635355,0.435355,0.650000,0.400000,0.650000,0.200000,0.635355,0.164645,0.035355,-0.435355,0.000000,-0.450000,-0.035355,-0.435355,-0.635355,0.164645,-0.650000,0.200000,-0.650000,0.400000,-0.635355,0.435355,-0.600000,0.450000,0.600000,0.450000,0.635355,0.435355,0.635355,0.435355,$1*%
%AMFreePoly1*
4,1,16,0.635355,1.035355,0.650000,1.000000,0.650000,-0.250000,0.635355,-0.285355,0.600000,-0.300000,-0.600000,-0.300000,-0.635355,-0.285355,-0.650000,-0.250000,-0.650000,1.000000,-0.635355,1.035355,-0.600000,1.050000,-0.564645,1.035355,0.000000,0.470710,0.564645,1.035355,0.600000,1.050000,0.635355,1.035355,0.635355,1.035355,$1*%
G04 Aperture macros list end*
%ADD10C,0.250000*%
%ADD11C,0.100000*%
%ADD12C,1.852600*%
%ADD13C,1.701800*%
%ADD14C,3.000000*%
%ADD15C,3.429000*%
%ADD16RoundRect,0.050000X-1.054507X-1.505993X1.505993X-1.054507X1.054507X1.505993X-1.505993X1.054507X0*%
%ADD17C,2.132000*%
%ADD18RoundRect,0.050000X-1.181751X-1.408356X1.408356X-1.181751X1.181751X1.408356X-1.408356X1.181751X0*%
%ADD19RoundRect,0.050000X-1.300000X-1.300000X1.300000X-1.300000X1.300000X1.300000X-1.300000X1.300000X0*%
%ADD20C,0.800000*%
%ADD21C,4.500000*%
%ADD22RoundRect,0.050000X-0.776974X-1.666227X1.666227X-0.776974X0.776974X1.666227X-1.666227X0.776974X0*%
%ADD23C,1.700000*%
%ADD24RoundRect,0.050000X-0.800000X0.800000X-0.800000X-0.800000X0.800000X-0.800000X0.800000X0.800000X0*%
%ADD25FreePoly0,270.000000*%
%ADD26FreePoly0,90.000000*%
%ADD27FreePoly1,90.000000*%
%ADD28FreePoly1,270.000000*%
%ADD29RoundRect,0.050000X-1.727604X-0.628796X0.628796X-1.727604X1.727604X0.628796X-0.628796X1.727604X0*%
%ADD30RoundRect,0.050000X-1.592168X-0.919239X0.919239X-1.592168X1.592168X0.919239X-0.919239X1.592168X0*%
%ADD31RoundRect,0.050000X0.850000X-0.450000X0.850000X0.450000X-0.850000X0.450000X-0.850000X-0.450000X0*%
%ADD32RoundRect,0.050000X0.500000X0.400000X-0.500000X0.400000X-0.500000X-0.400000X0.500000X-0.400000X0*%
%ADD33C,0.900000*%
%ADD34RoundRect,0.050000X0.350000X0.750000X-0.350000X0.750000X-0.350000X-0.750000X0.350000X-0.750000X0*%
G04 APERTURE END LIST*
D10*
%TO.C,MCU1*%
X243168329Y-111393816D02*
G75*
G03*
X243168329Y-111393816I-125000J0D01*
G01*
X241644329Y-111393816D02*
G75*
G03*
X241644329Y-111393816I-125000J0D01*
G01*
X243168329Y-113933816D02*
G75*
G03*
X243168329Y-113933816I-125000J0D01*
G01*
X241644329Y-113933816D02*
G75*
G03*
X241644329Y-113933816I-125000J0D01*
G01*
X243168329Y-116473816D02*
G75*
G03*
X243168329Y-116473816I-125000J0D01*
G01*
X241644329Y-116473816D02*
G75*
G03*
X241644329Y-116473816I-125000J0D01*
G01*
X243168329Y-119013816D02*
G75*
G03*
X243168329Y-119013816I-125000J0D01*
G01*
X241644329Y-119013816D02*
G75*
G03*
X241644329Y-119013816I-125000J0D01*
G01*
X243168329Y-121553816D02*
G75*
G03*
X243168329Y-121553816I-125000J0D01*
G01*
X241644329Y-121553816D02*
G75*
G03*
X241644329Y-121553816I-125000J0D01*
G01*
X243168329Y-124093816D02*
G75*
G03*
X243168329Y-124093816I-125000J0D01*
G01*
X241644329Y-124093816D02*
G75*
G03*
X241644329Y-124093816I-125000J0D01*
G01*
X243168329Y-126633816D02*
G75*
G03*
X243168329Y-126633816I-125000J0D01*
G01*
X241644329Y-126633816D02*
G75*
G03*
X241644329Y-126633816I-125000J0D01*
G01*
X243168329Y-129173816D02*
G75*
G03*
X243168329Y-129173816I-125000J0D01*
G01*
X241644329Y-129173816D02*
G75*
G03*
X241644329Y-129173816I-125000J0D01*
G01*
X243168329Y-131713816D02*
G75*
G03*
X243168329Y-131713816I-125000J0D01*
G01*
X241644329Y-131713816D02*
G75*
G03*
X241644329Y-131713816I-125000J0D01*
G01*
X243168329Y-134253816D02*
G75*
G03*
X243168329Y-134253816I-125000J0D01*
G01*
X241644329Y-134253816D02*
G75*
G03*
X241644329Y-134253816I-125000J0D01*
G01*
X243168329Y-136793816D02*
G75*
G03*
X243168329Y-136793816I-125000J0D01*
G01*
X241644329Y-136793816D02*
G75*
G03*
X241644329Y-136793816I-125000J0D01*
G01*
X243168329Y-139333816D02*
G75*
G03*
X243168329Y-139333816I-125000J0D01*
G01*
X241644329Y-139333816D02*
G75*
G03*
X241644329Y-139333816I-125000J0D01*
G01*
D11*
X237201329Y-111901816D02*
X236185329Y-111901816D01*
X236185329Y-110885816D01*
X237201329Y-110885816D01*
X237201329Y-111901816D01*
G36*
X237201329Y-111901816D02*
G01*
X236185329Y-111901816D01*
X236185329Y-110885816D01*
X237201329Y-110885816D01*
X237201329Y-111901816D01*
G37*
X248377329Y-111901816D02*
X247361329Y-111901816D01*
X247361329Y-110885816D01*
X248377329Y-110885816D01*
X248377329Y-111901816D01*
G36*
X248377329Y-111901816D02*
G01*
X247361329Y-111901816D01*
X247361329Y-110885816D01*
X248377329Y-110885816D01*
X248377329Y-111901816D01*
G37*
X237201329Y-114441816D02*
X236185329Y-114441816D01*
X236185329Y-113425816D01*
X237201329Y-113425816D01*
X237201329Y-114441816D01*
G36*
X237201329Y-114441816D02*
G01*
X236185329Y-114441816D01*
X236185329Y-113425816D01*
X237201329Y-113425816D01*
X237201329Y-114441816D01*
G37*
X248377329Y-114441816D02*
X247361329Y-114441816D01*
X247361329Y-113425816D01*
X248377329Y-113425816D01*
X248377329Y-114441816D01*
G36*
X248377329Y-114441816D02*
G01*
X247361329Y-114441816D01*
X247361329Y-113425816D01*
X248377329Y-113425816D01*
X248377329Y-114441816D01*
G37*
X237201329Y-116981816D02*
X236185329Y-116981816D01*
X236185329Y-115965816D01*
X237201329Y-115965816D01*
X237201329Y-116981816D01*
G36*
X237201329Y-116981816D02*
G01*
X236185329Y-116981816D01*
X236185329Y-115965816D01*
X237201329Y-115965816D01*
X237201329Y-116981816D01*
G37*
X248377329Y-116981816D02*
X247361329Y-116981816D01*
X247361329Y-115965816D01*
X248377329Y-115965816D01*
X248377329Y-116981816D01*
G36*
X248377329Y-116981816D02*
G01*
X247361329Y-116981816D01*
X247361329Y-115965816D01*
X248377329Y-115965816D01*
X248377329Y-116981816D01*
G37*
X237201329Y-119521816D02*
X236185329Y-119521816D01*
X236185329Y-118505816D01*
X237201329Y-118505816D01*
X237201329Y-119521816D01*
G36*
X237201329Y-119521816D02*
G01*
X236185329Y-119521816D01*
X236185329Y-118505816D01*
X237201329Y-118505816D01*
X237201329Y-119521816D01*
G37*
X248377329Y-119521816D02*
X247361329Y-119521816D01*
X247361329Y-118505816D01*
X248377329Y-118505816D01*
X248377329Y-119521816D01*
G36*
X248377329Y-119521816D02*
G01*
X247361329Y-119521816D01*
X247361329Y-118505816D01*
X248377329Y-118505816D01*
X248377329Y-119521816D01*
G37*
X237201329Y-122061816D02*
X236185329Y-122061816D01*
X236185329Y-121045816D01*
X237201329Y-121045816D01*
X237201329Y-122061816D01*
G36*
X237201329Y-122061816D02*
G01*
X236185329Y-122061816D01*
X236185329Y-121045816D01*
X237201329Y-121045816D01*
X237201329Y-122061816D01*
G37*
X248377329Y-122061816D02*
X247361329Y-122061816D01*
X247361329Y-121045816D01*
X248377329Y-121045816D01*
X248377329Y-122061816D01*
G36*
X248377329Y-122061816D02*
G01*
X247361329Y-122061816D01*
X247361329Y-121045816D01*
X248377329Y-121045816D01*
X248377329Y-122061816D01*
G37*
X237201329Y-124601816D02*
X236185329Y-124601816D01*
X236185329Y-123585816D01*
X237201329Y-123585816D01*
X237201329Y-124601816D01*
G36*
X237201329Y-124601816D02*
G01*
X236185329Y-124601816D01*
X236185329Y-123585816D01*
X237201329Y-123585816D01*
X237201329Y-124601816D01*
G37*
X248377329Y-124601816D02*
X247361329Y-124601816D01*
X247361329Y-123585816D01*
X248377329Y-123585816D01*
X248377329Y-124601816D01*
G36*
X248377329Y-124601816D02*
G01*
X247361329Y-124601816D01*
X247361329Y-123585816D01*
X248377329Y-123585816D01*
X248377329Y-124601816D01*
G37*
X237201329Y-127141816D02*
X236185329Y-127141816D01*
X236185329Y-126125816D01*
X237201329Y-126125816D01*
X237201329Y-127141816D01*
G36*
X237201329Y-127141816D02*
G01*
X236185329Y-127141816D01*
X236185329Y-126125816D01*
X237201329Y-126125816D01*
X237201329Y-127141816D01*
G37*
X248377329Y-127141816D02*
X247361329Y-127141816D01*
X247361329Y-126125816D01*
X248377329Y-126125816D01*
X248377329Y-127141816D01*
G36*
X248377329Y-127141816D02*
G01*
X247361329Y-127141816D01*
X247361329Y-126125816D01*
X248377329Y-126125816D01*
X248377329Y-127141816D01*
G37*
X237201329Y-129681816D02*
X236185329Y-129681816D01*
X236185329Y-128665816D01*
X237201329Y-128665816D01*
X237201329Y-129681816D01*
G36*
X237201329Y-129681816D02*
G01*
X236185329Y-129681816D01*
X236185329Y-128665816D01*
X237201329Y-128665816D01*
X237201329Y-129681816D01*
G37*
X248377329Y-129681816D02*
X247361329Y-129681816D01*
X247361329Y-128665816D01*
X248377329Y-128665816D01*
X248377329Y-129681816D01*
G36*
X248377329Y-129681816D02*
G01*
X247361329Y-129681816D01*
X247361329Y-128665816D01*
X248377329Y-128665816D01*
X248377329Y-129681816D01*
G37*
X237201329Y-132221816D02*
X236185329Y-132221816D01*
X236185329Y-131205816D01*
X237201329Y-131205816D01*
X237201329Y-132221816D01*
G36*
X237201329Y-132221816D02*
G01*
X236185329Y-132221816D01*
X236185329Y-131205816D01*
X237201329Y-131205816D01*
X237201329Y-132221816D01*
G37*
X248377329Y-132221816D02*
X247361329Y-132221816D01*
X247361329Y-131205816D01*
X248377329Y-131205816D01*
X248377329Y-132221816D01*
G36*
X248377329Y-132221816D02*
G01*
X247361329Y-132221816D01*
X247361329Y-131205816D01*
X248377329Y-131205816D01*
X248377329Y-132221816D01*
G37*
X237201329Y-134761816D02*
X236185329Y-134761816D01*
X236185329Y-133745816D01*
X237201329Y-133745816D01*
X237201329Y-134761816D01*
G36*
X237201329Y-134761816D02*
G01*
X236185329Y-134761816D01*
X236185329Y-133745816D01*
X237201329Y-133745816D01*
X237201329Y-134761816D01*
G37*
X248377329Y-134761816D02*
X247361329Y-134761816D01*
X247361329Y-133745816D01*
X248377329Y-133745816D01*
X248377329Y-134761816D01*
G36*
X248377329Y-134761816D02*
G01*
X247361329Y-134761816D01*
X247361329Y-133745816D01*
X248377329Y-133745816D01*
X248377329Y-134761816D01*
G37*
X237201329Y-137301816D02*
X236185329Y-137301816D01*
X236185329Y-136285816D01*
X237201329Y-136285816D01*
X237201329Y-137301816D01*
G36*
X237201329Y-137301816D02*
G01*
X236185329Y-137301816D01*
X236185329Y-136285816D01*
X237201329Y-136285816D01*
X237201329Y-137301816D01*
G37*
X248377329Y-137301816D02*
X247361329Y-137301816D01*
X247361329Y-136285816D01*
X248377329Y-136285816D01*
X248377329Y-137301816D01*
G36*
X248377329Y-137301816D02*
G01*
X247361329Y-137301816D01*
X247361329Y-136285816D01*
X248377329Y-136285816D01*
X248377329Y-137301816D01*
G37*
X237201329Y-139841816D02*
X236185329Y-139841816D01*
X236185329Y-138825816D01*
X237201329Y-138825816D01*
X237201329Y-139841816D01*
G36*
X237201329Y-139841816D02*
G01*
X236185329Y-139841816D01*
X236185329Y-138825816D01*
X237201329Y-138825816D01*
X237201329Y-139841816D01*
G37*
X248377329Y-139841816D02*
X247361329Y-139841816D01*
X247361329Y-138825816D01*
X248377329Y-138825816D01*
X248377329Y-139841816D01*
G36*
X248377329Y-139841816D02*
G01*
X247361329Y-139841816D01*
X247361329Y-138825816D01*
X248377329Y-138825816D01*
X248377329Y-139841816D01*
G37*
%TD*%
D12*
%TO.C,*%
X240661329Y-109213818D03*
X243901329Y-109213818D03*
%TD*%
D13*
%TO.C,S6*%
X154840907Y-97740295D03*
D14*
X154682131Y-93960442D03*
X159224143Y-90925624D03*
X159224143Y-90925624D03*
D15*
X160257350Y-96785230D03*
D14*
X164530208Y-92223960D03*
D13*
X165673793Y-95830165D03*
D16*
X155998898Y-91494322D03*
X167755453Y-91655262D03*
%TD*%
D13*
%TO.C,S30*%
X227781329Y-128213815D03*
D15*
X222281329Y-128213815D03*
D13*
X216781329Y-128213815D03*
D17*
X227281329Y-132013815D03*
X217281329Y-132013815D03*
X222281329Y-134113815D03*
X222281329Y-134113815D03*
%TD*%
D13*
%TO.C,S20*%
X145738566Y-119336127D03*
D15*
X140570257Y-121217238D03*
D13*
X135401948Y-123098349D03*
D17*
X146568397Y-123077969D03*
X137171470Y-126498171D03*
X142588176Y-126761424D03*
X142588176Y-126761424D03*
%TD*%
D13*
%TO.C,S9*%
X175931930Y-87977608D03*
D14*
X176103193Y-84198300D03*
X180892424Y-81570893D03*
X180892424Y-81570893D03*
D15*
X181411001Y-87498251D03*
D14*
X186065140Y-83326742D03*
D13*
X186890072Y-87018894D03*
D18*
X177629887Y-81856328D03*
X189327678Y-83041307D03*
%TD*%
D13*
%TO.C,S7*%
X178895223Y-121848231D03*
D14*
X179066486Y-118068923D03*
X183855717Y-115441516D03*
X183855717Y-115441516D03*
D15*
X184374294Y-121368874D03*
D14*
X189028433Y-117197365D03*
D13*
X189853365Y-120889517D03*
D18*
X180593180Y-115726951D03*
X192290971Y-116911930D03*
%TD*%
D13*
%TO.C,S10*%
X198781329Y-125380484D03*
D14*
X199281329Y-121630484D03*
X204281329Y-119430484D03*
X204281329Y-119430484D03*
D15*
X204281329Y-125380484D03*
D14*
X209281329Y-121630484D03*
D13*
X209781329Y-125380484D03*
D19*
X201006329Y-119430484D03*
X212556329Y-121630484D03*
%TD*%
D13*
%TO.C,S29*%
X209781331Y-91380481D03*
D15*
X204281331Y-91380481D03*
D13*
X198781331Y-91380481D03*
D17*
X209281331Y-95180481D03*
X199281331Y-95180481D03*
X204281331Y-97280481D03*
X204281331Y-97280481D03*
%TD*%
D20*
%TO.C,_5*%
X156796183Y-141383842D03*
X156851268Y-140122189D03*
X157649356Y-142314917D03*
X157782343Y-139269016D03*
D21*
X158346676Y-140819509D03*
D20*
X158911009Y-142370002D03*
X159043996Y-139324101D03*
X159842084Y-141516829D03*
X159897169Y-140255176D03*
%TD*%
D13*
%TO.C,S15*%
X216781330Y-94213820D03*
D14*
X217281330Y-90463820D03*
X222281330Y-88263820D03*
X222281330Y-88263820D03*
D15*
X222281330Y-94213820D03*
D14*
X227281330Y-90463820D03*
D13*
X227781330Y-94213820D03*
D19*
X219006330Y-88263820D03*
X230556330Y-90463820D03*
%TD*%
D13*
%TO.C,S1*%
X147030634Y-155047900D03*
D14*
X146217904Y-151353042D03*
X150163923Y-147575618D03*
X150163923Y-147575618D03*
D15*
X152198943Y-153166789D03*
D14*
X155614831Y-147932841D03*
D13*
X157367252Y-151285678D03*
D22*
X147086430Y-148695734D03*
X158692324Y-146812725D03*
%TD*%
D23*
%TO.C,MCU1*%
X249901329Y-111393816D03*
D24*
X249901329Y-111393816D03*
D25*
X248123329Y-111393816D03*
D26*
X236439329Y-111393816D03*
D23*
X234661329Y-111393816D03*
X249901329Y-113933816D03*
D25*
X248123329Y-113933816D03*
D26*
X236439329Y-113933816D03*
D23*
X234661329Y-113933816D03*
X249901329Y-116473816D03*
D25*
X248123329Y-116473816D03*
D26*
X236439329Y-116473816D03*
D23*
X234661329Y-116473816D03*
X249901329Y-119013816D03*
D25*
X248123329Y-119013816D03*
D26*
X236439329Y-119013816D03*
D23*
X234661329Y-119013816D03*
X249901329Y-121553816D03*
D25*
X248123329Y-121553816D03*
D26*
X236439329Y-121553816D03*
D23*
X234661329Y-121553816D03*
X249901329Y-124093816D03*
D25*
X248123329Y-124093816D03*
D26*
X236439329Y-124093816D03*
D23*
X234661329Y-124093816D03*
X249901329Y-126633816D03*
D25*
X248123329Y-126633816D03*
D26*
X236439329Y-126633816D03*
D23*
X234661329Y-126633816D03*
X249901329Y-129173816D03*
D25*
X248123329Y-129173816D03*
D26*
X236439329Y-129173816D03*
D23*
X234661329Y-129173816D03*
X249901329Y-131713816D03*
D25*
X248123329Y-131713816D03*
D26*
X236439329Y-131713816D03*
D23*
X234661329Y-131713816D03*
X249901329Y-134253816D03*
D25*
X248123329Y-134253816D03*
D26*
X236439329Y-134253816D03*
D23*
X234661329Y-134253816D03*
X249901329Y-136793816D03*
D25*
X248123329Y-136793816D03*
D26*
X236439329Y-136793816D03*
D23*
X234661329Y-136793816D03*
X249901329Y-139333816D03*
D25*
X248123329Y-139333816D03*
D26*
X236439329Y-139333816D03*
D23*
X234661329Y-139333816D03*
D27*
X237455329Y-111393816D03*
X237455329Y-113933816D03*
X237455329Y-116473816D03*
X237455329Y-119013816D03*
X237455329Y-121553816D03*
X237455329Y-124093816D03*
X237455329Y-126633816D03*
X237455329Y-129173816D03*
X237455329Y-131713816D03*
X237455329Y-134253816D03*
X237455329Y-136793816D03*
X237455329Y-139333816D03*
D28*
X247107329Y-139333816D03*
X247107329Y-136793816D03*
X247107329Y-134253816D03*
X247107329Y-131713816D03*
X247107329Y-129173816D03*
X247107329Y-126633816D03*
X247107329Y-124093816D03*
X247107329Y-121553816D03*
X247107329Y-119013816D03*
X247107329Y-116473816D03*
X247107329Y-113933816D03*
X247107329Y-111393816D03*
%TD*%
D13*
%TO.C,S14*%
X216781329Y-111213815D03*
D14*
X217281329Y-107463815D03*
X222281329Y-105263815D03*
X222281329Y-105263815D03*
D15*
X222281329Y-111213815D03*
D14*
X227281329Y-107463815D03*
D13*
X227781329Y-111213815D03*
D19*
X219006329Y-105263815D03*
X230556329Y-107463815D03*
%TD*%
D20*
%TO.C,_7*%
X230346806Y-154374956D03*
X231115584Y-153373065D03*
X230511642Y-155627007D03*
X232367635Y-153208229D03*
D21*
X231940584Y-154802007D03*
D20*
X231513533Y-156395785D03*
X233369526Y-153977007D03*
X232765584Y-156230949D03*
X233534362Y-155229058D03*
%TD*%
D13*
%TO.C,S18*%
X157367252Y-151285678D03*
D15*
X152198943Y-153166789D03*
D13*
X147030634Y-155047900D03*
D17*
X158197083Y-155027520D03*
X148800156Y-158447722D03*
X154216862Y-158710975D03*
X154216862Y-158710975D03*
%TD*%
D20*
%TO.C,_6*%
X192631331Y-97080482D03*
X193114605Y-95913756D03*
X193114605Y-98247208D03*
X194281331Y-95430482D03*
D21*
X194281331Y-97080482D03*
D20*
X194281331Y-98730482D03*
X195448057Y-95913756D03*
X195448057Y-98247208D03*
X195931331Y-97080482D03*
%TD*%
D13*
%TO.C,S17*%
X235702831Y-156588721D03*
D14*
X237740804Y-153401375D03*
X243202103Y-153520590D03*
X243202103Y-153520590D03*
D15*
X240687524Y-158913121D03*
D14*
X246803881Y-157627558D03*
D13*
X245672217Y-161237521D03*
D29*
X240233945Y-152136515D03*
X249772039Y-159011633D03*
%TD*%
D13*
%TO.C,S33*%
X227593923Y-153637319D03*
D15*
X222281331Y-152213814D03*
D13*
X216968739Y-150790309D03*
D17*
X226127448Y-157178427D03*
X216468189Y-154590237D03*
X220754299Y-157912776D03*
X220754299Y-157912776D03*
%TD*%
D13*
%TO.C,S16*%
X216968739Y-150790309D03*
D14*
X218422273Y-147297497D03*
X223821304Y-146466555D03*
X223821304Y-146466555D03*
D15*
X222281331Y-152213814D03*
D14*
X228081532Y-149885687D03*
D13*
X227593923Y-153637319D03*
D30*
X220657897Y-145618923D03*
X231244939Y-150733320D03*
%TD*%
D13*
%TO.C,S27*%
X209781329Y-125380484D03*
D15*
X204281329Y-125380484D03*
D13*
X198781329Y-125380484D03*
D17*
X209281329Y-129180484D03*
X199281329Y-129180484D03*
X204281329Y-131280484D03*
X204281329Y-131280484D03*
%TD*%
D13*
%TO.C,S5*%
X157792927Y-114482026D03*
D14*
X157634151Y-110702173D03*
X162176163Y-107667355D03*
X162176163Y-107667355D03*
D15*
X163209370Y-113526961D03*
D14*
X167482228Y-108965691D03*
D13*
X168625813Y-112571896D03*
D16*
X158950918Y-108236053D03*
X170707473Y-108396993D03*
%TD*%
D13*
%TO.C,S13*%
X216781329Y-128213815D03*
D14*
X217281329Y-124463815D03*
X222281329Y-122263815D03*
X222281329Y-122263815D03*
D15*
X222281329Y-128213815D03*
D14*
X227281329Y-124463815D03*
D13*
X227781329Y-128213815D03*
D19*
X219006329Y-122263815D03*
X230556329Y-124463815D03*
%TD*%
D13*
%TO.C,S2*%
X141216291Y-139073124D03*
D14*
X140403561Y-135378266D03*
X144349580Y-131600842D03*
X144349580Y-131600842D03*
D15*
X146384600Y-137192013D03*
D14*
X149800488Y-131958065D03*
D13*
X151552909Y-135310902D03*
D22*
X141272087Y-132720958D03*
X152877981Y-130837949D03*
%TD*%
D13*
%TO.C,S4*%
X160744944Y-131223759D03*
D14*
X160586168Y-127443906D03*
X165128180Y-124409088D03*
X165128180Y-124409088D03*
D15*
X166161387Y-130268694D03*
D14*
X170434245Y-125707424D03*
D13*
X171577830Y-129313629D03*
D16*
X161902935Y-124977786D03*
X173659490Y-125138726D03*
%TD*%
D13*
%TO.C,S24*%
X189853365Y-120889517D03*
D15*
X184374294Y-121368874D03*
D13*
X178895223Y-121848231D03*
D17*
X189686459Y-124718635D03*
X179724512Y-125590193D03*
X184888513Y-127246423D03*
X184888513Y-127246423D03*
%TD*%
D13*
%TO.C,S23*%
X165673793Y-95830165D03*
D15*
X160257350Y-96785230D03*
D13*
X154840907Y-97740295D03*
D17*
X165841252Y-99659259D03*
X155993174Y-101395740D03*
X161281874Y-102595596D03*
X161281874Y-102595596D03*
%TD*%
D13*
%TO.C,S34*%
X245672217Y-161237521D03*
D15*
X240687524Y-158913121D03*
D13*
X235702831Y-156588721D03*
D17*
X243613114Y-164470182D03*
X234550036Y-160243999D03*
X238194076Y-164260337D03*
X238194076Y-164260337D03*
%TD*%
D31*
%TO.C,*%
X250281330Y-109013817D03*
X250281330Y-105613817D03*
%TD*%
D13*
%TO.C,S21*%
X171577830Y-129313629D03*
D15*
X166161387Y-130268694D03*
D13*
X160744944Y-131223759D03*
D17*
X171745289Y-133142723D03*
X161897211Y-134879204D03*
X167185911Y-136079060D03*
X167185911Y-136079060D03*
%TD*%
D20*
%TO.C,_4*%
X151665882Y-127288452D03*
X151720967Y-126026799D03*
X152519055Y-128219527D03*
X152652042Y-125173626D03*
D21*
X153216375Y-126724119D03*
D20*
X153780708Y-128274612D03*
X153913695Y-125228711D03*
X154711783Y-127421439D03*
X154766868Y-126159786D03*
%TD*%
D13*
%TO.C,S31*%
X227781329Y-111213815D03*
D15*
X222281329Y-111213815D03*
D13*
X216781329Y-111213815D03*
D17*
X227281329Y-115013815D03*
X217281329Y-115013815D03*
X222281329Y-117113815D03*
X222281329Y-117113815D03*
%TD*%
D13*
%TO.C,S26*%
X186890072Y-87018894D03*
D15*
X181411001Y-87498251D03*
D13*
X175931930Y-87977608D03*
D17*
X186723166Y-90848012D03*
X176761219Y-91719570D03*
X181925220Y-93375800D03*
X181925220Y-93375800D03*
%TD*%
D13*
%TO.C,S22*%
X168625813Y-112571896D03*
D15*
X163209370Y-113526961D03*
D13*
X157792927Y-114482026D03*
D17*
X168793272Y-116400990D03*
X158945194Y-118137471D03*
X164233894Y-119337327D03*
X164233894Y-119337327D03*
%TD*%
D13*
%TO.C,S12*%
X198781331Y-91380481D03*
D14*
X199281331Y-87630481D03*
X204281331Y-85430481D03*
X204281331Y-85430481D03*
D15*
X204281331Y-91380481D03*
D14*
X209281331Y-87630481D03*
D13*
X209781331Y-91380481D03*
D19*
X201006331Y-85430481D03*
X212556331Y-87630481D03*
%TD*%
D13*
%TO.C,S25*%
X188371719Y-103954207D03*
D15*
X182892648Y-104433564D03*
D13*
X177413577Y-104912921D03*
D17*
X188204813Y-107783325D03*
X178242866Y-108654883D03*
X183406867Y-110311113D03*
X183406867Y-110311113D03*
%TD*%
D13*
%TO.C,S8*%
X177413577Y-104912921D03*
D14*
X177584840Y-101133613D03*
X182374071Y-98506206D03*
X182374071Y-98506206D03*
D15*
X182892648Y-104433564D03*
D14*
X187546787Y-100262055D03*
D13*
X188371719Y-103954207D03*
D18*
X179111534Y-98791641D03*
X190809325Y-99976620D03*
%TD*%
D13*
%TO.C,S28*%
X209781328Y-108380481D03*
D15*
X204281328Y-108380481D03*
D13*
X198781328Y-108380481D03*
D17*
X209281328Y-112180481D03*
X199281328Y-112180481D03*
X204281328Y-114280481D03*
X204281328Y-114280481D03*
%TD*%
D13*
%TO.C,S32*%
X227781330Y-94213820D03*
D15*
X222281330Y-94213820D03*
D13*
X216781330Y-94213820D03*
D17*
X227281330Y-98013820D03*
X217281330Y-98013820D03*
X222281330Y-100113820D03*
X222281330Y-100113820D03*
%TD*%
D13*
%TO.C,S19*%
X151552909Y-135310902D03*
D15*
X146384600Y-137192013D03*
D13*
X141216291Y-139073124D03*
D17*
X152382740Y-139052744D03*
X142985813Y-142472946D03*
X148402519Y-142736199D03*
X148402519Y-142736199D03*
%TD*%
D13*
%TO.C,S11*%
X198781328Y-108380481D03*
D14*
X199281328Y-104630481D03*
X204281328Y-102430481D03*
X204281328Y-102430481D03*
D15*
X204281328Y-108380481D03*
D14*
X209281328Y-104630481D03*
D13*
X209781328Y-108380481D03*
D19*
X201006328Y-102430481D03*
X212556328Y-104630481D03*
%TD*%
D13*
%TO.C,S3*%
X135401948Y-123098349D03*
D14*
X134589218Y-119403491D03*
X138535237Y-115626067D03*
X138535237Y-115626067D03*
D15*
X140570257Y-121217238D03*
D14*
X143986145Y-115983290D03*
D13*
X145738566Y-119336127D03*
D22*
X135457744Y-116746183D03*
X147063638Y-114863174D03*
%TD*%
D32*
%TO.C,*%
X245931331Y-106383818D03*
X245931331Y-104173818D03*
D33*
X243781331Y-105273818D03*
X243781331Y-105273818D03*
X240781331Y-105273818D03*
X240781331Y-105273818D03*
D32*
X238631331Y-106383818D03*
X238631331Y-104173818D03*
D34*
X240031331Y-107033818D03*
X243031331Y-107033818D03*
X244531331Y-107033818D03*
%TD*%
M02*
