%TF.GenerationSoftware,KiCad,Pcbnew,7.0.2-0*%
%TF.CreationDate,2023-07-16T18:15:17+02:00*%
%TF.ProjectId,lambbt_finished,6c616d62-6274-45f6-9669-6e6973686564,v1.0.0*%
%TF.SameCoordinates,Original*%
%TF.FileFunction,Copper,L1,Top*%
%TF.FilePolarity,Positive*%
%FSLAX46Y46*%
G04 Gerber Fmt 4.6, Leading zero omitted, Abs format (unit mm)*
G04 Created by KiCad (PCBNEW 7.0.2-0) date 2023-07-16 18:15:17*
%MOMM*%
%LPD*%
G01*
G04 APERTURE LIST*
G04 Aperture macros list*
%AMRotRect*
0 Rectangle, with rotation*
0 The origin of the aperture is its center*
0 $1 length*
0 $2 width*
0 $3 Rotation angle, in degrees counterclockwise*
0 Add horizontal line*
21,1,$1,$2,0,0,$3*%
%AMFreePoly0*
4,1,5,0.125000,-0.500000,-0.125000,-0.500000,-0.125000,0.500000,0.125000,0.500000,0.125000,-0.500000,0.125000,-0.500000,$1*%
%AMFreePoly1*
4,1,6,0.600000,0.200000,0.000000,-0.400000,-0.600000,0.200000,-0.600000,0.400000,0.600000,0.400000,0.600000,0.200000,0.600000,0.200000,$1*%
%AMFreePoly2*
4,1,6,0.600000,-0.250000,-0.600000,-0.250000,-0.600000,1.000000,0.000000,0.400000,0.600000,1.000000,0.600000,-0.250000,0.600000,-0.250000,$1*%
G04 Aperture macros list end*
%TA.AperFunction,ComponentPad*%
%ADD10C,1.752600*%
%TD*%
%TA.AperFunction,SMDPad,CuDef*%
%ADD11RotRect,2.600000X2.600000X10.000000*%
%TD*%
%TA.AperFunction,ComponentPad*%
%ADD12C,2.032000*%
%TD*%
%TA.AperFunction,SMDPad,CuDef*%
%ADD13RotRect,2.600000X2.600000X5.000000*%
%TD*%
%TA.AperFunction,SMDPad,CuDef*%
%ADD14R,2.600000X2.600000*%
%TD*%
%TA.AperFunction,ComponentPad*%
%ADD15C,0.700000*%
%TD*%
%TA.AperFunction,ComponentPad*%
%ADD16C,4.400000*%
%TD*%
%TA.AperFunction,SMDPad,CuDef*%
%ADD17RotRect,2.600000X2.600000X20.000000*%
%TD*%
%TA.AperFunction,ComponentPad*%
%ADD18C,1.600000*%
%TD*%
%TA.AperFunction,SMDPad,CuDef*%
%ADD19FreePoly0,270.000000*%
%TD*%
%TA.AperFunction,SMDPad,CuDef*%
%ADD20FreePoly1,270.000000*%
%TD*%
%TA.AperFunction,SMDPad,CuDef*%
%ADD21FreePoly1,90.000000*%
%TD*%
%TA.AperFunction,SMDPad,CuDef*%
%ADD22FreePoly0,90.000000*%
%TD*%
%TA.AperFunction,ComponentPad*%
%ADD23R,1.600000X1.600000*%
%TD*%
%TA.AperFunction,SMDPad,CuDef*%
%ADD24FreePoly2,270.000000*%
%TD*%
%TA.AperFunction,SMDPad,CuDef*%
%ADD25FreePoly2,90.000000*%
%TD*%
%TA.AperFunction,SMDPad,CuDef*%
%ADD26RotRect,2.600000X2.600000X335.000000*%
%TD*%
%TA.AperFunction,SMDPad,CuDef*%
%ADD27RotRect,2.600000X2.600000X345.000000*%
%TD*%
%TA.AperFunction,SMDPad,CuDef*%
%ADD28R,1.700000X0.900000*%
%TD*%
%TA.AperFunction,SMDPad,CuDef*%
%ADD29R,1.000000X0.800000*%
%TD*%
%TA.AperFunction,SMDPad,CuDef*%
%ADD30R,0.700000X1.500000*%
%TD*%
%TA.AperFunction,ViaPad*%
%ADD31C,0.800000*%
%TD*%
%TA.AperFunction,Conductor*%
%ADD32C,0.250000*%
%TD*%
G04 APERTURE END LIST*
D10*
%TO.P,,1*%
%TO.N,pos*%
X240661329Y-109213818D03*
%TO.P,,2*%
%TO.N,GND*%
X243901329Y-109213818D03*
%TD*%
D11*
%TO.P,S6,1*%
%TO.N,P9*%
X162449389Y-90356926D03*
%TO.P,S6,2*%
%TO.N,GND*%
X151456885Y-94529140D03*
%TD*%
D12*
%TO.P,S30,1*%
%TO.N,P2*%
X227281329Y-132013815D03*
X217281329Y-132013815D03*
%TO.P,S30,2*%
%TO.N,GND*%
X222281329Y-134113815D03*
X222281329Y-134113815D03*
%TD*%
%TO.P,S20,1*%
%TO.N,P14*%
X146568397Y-123077969D03*
X137171470Y-126498171D03*
%TO.P,S20,2*%
%TO.N,GND*%
X142588176Y-126761424D03*
X142588176Y-126761424D03*
%TD*%
D13*
%TO.P,S9,1*%
%TO.N,P6*%
X184154962Y-81285457D03*
%TO.P,S9,2*%
%TO.N,GND*%
X172840656Y-84483735D03*
%TD*%
%TO.P,S7,1*%
%TO.N,P8*%
X187118255Y-115156080D03*
%TO.P,S7,2*%
%TO.N,GND*%
X175803949Y-118354358D03*
%TD*%
D14*
%TO.P,S10,1*%
%TO.N,P5*%
X207556329Y-119430484D03*
%TO.P,S10,2*%
%TO.N,GND*%
X196006329Y-121630484D03*
%TD*%
D12*
%TO.P,S29,1*%
%TO.N,P3*%
X209281331Y-95180481D03*
X199281331Y-95180481D03*
%TO.P,S29,2*%
%TO.N,GND*%
X204281331Y-97280481D03*
X204281331Y-97280481D03*
%TD*%
D15*
%TO.P,_5,1*%
%TO.N,N/C*%
X156796183Y-141383842D03*
X156851268Y-140122189D03*
X157649356Y-142314917D03*
X157782343Y-139269016D03*
D16*
X158346676Y-140819509D03*
D15*
X158911009Y-142370002D03*
X159043996Y-139324101D03*
X159842084Y-141516829D03*
X159897169Y-140255176D03*
%TD*%
D14*
%TO.P,S15,1*%
%TO.N,P1*%
X225556330Y-88263820D03*
%TO.P,S15,2*%
%TO.N,GND*%
X214006330Y-90463820D03*
%TD*%
D17*
%TO.P,S1,1*%
%TO.N,P18*%
X153241416Y-146455502D03*
%TO.P,S1,2*%
%TO.N,GND*%
X143140411Y-152473158D03*
%TD*%
D18*
%TO.P,MCU1,*%
%TO.N,*%
X249901329Y-111393816D03*
D19*
X248631329Y-111393816D03*
D20*
X248123329Y-111393816D03*
D21*
X236439329Y-111393816D03*
D22*
X235931329Y-111393816D03*
D18*
X234661329Y-111393816D03*
D23*
X234661329Y-111393816D03*
D18*
X249901329Y-113933816D03*
D19*
X248631329Y-113933816D03*
D20*
X248123329Y-113933816D03*
D21*
X236439329Y-113933816D03*
D22*
X235931329Y-113933816D03*
D18*
X234661329Y-113933816D03*
X249901329Y-116473816D03*
D19*
X248631329Y-116473816D03*
D20*
X248123329Y-116473816D03*
D21*
X236439329Y-116473816D03*
D22*
X235931329Y-116473816D03*
D18*
X234661329Y-116473816D03*
X249901329Y-119013816D03*
D19*
X248631329Y-119013816D03*
D20*
X248123329Y-119013816D03*
D21*
X236439329Y-119013816D03*
D22*
X235931329Y-119013816D03*
D18*
X234661329Y-119013816D03*
X249901329Y-121553816D03*
D19*
X248631329Y-121553816D03*
D20*
X248123329Y-121553816D03*
D21*
X236439329Y-121553816D03*
D22*
X235931329Y-121553816D03*
D18*
X234661329Y-121553816D03*
X249901329Y-124093816D03*
D19*
X248631329Y-124093816D03*
D20*
X248123329Y-124093816D03*
D21*
X236439329Y-124093816D03*
D22*
X235931329Y-124093816D03*
D18*
X234661329Y-124093816D03*
X249901329Y-126633816D03*
D19*
X248631329Y-126633816D03*
D20*
X248123329Y-126633816D03*
D21*
X236439329Y-126633816D03*
D22*
X235931329Y-126633816D03*
D18*
X234661329Y-126633816D03*
X249901329Y-129173816D03*
D19*
X248631329Y-129173816D03*
D20*
X248123329Y-129173816D03*
D21*
X236439329Y-129173816D03*
D22*
X235931329Y-129173816D03*
D18*
X234661329Y-129173816D03*
X249901329Y-131713816D03*
D19*
X248631329Y-131713816D03*
D20*
X248123329Y-131713816D03*
D21*
X236439329Y-131713816D03*
D22*
X235931329Y-131713816D03*
D18*
X234661329Y-131713816D03*
X249901329Y-134253816D03*
D19*
X248631329Y-134253816D03*
D20*
X248123329Y-134253816D03*
D21*
X236439329Y-134253816D03*
D22*
X235931329Y-134253816D03*
D18*
X234661329Y-134253816D03*
X249901329Y-136793816D03*
D19*
X248631329Y-136793816D03*
D20*
X248123329Y-136793816D03*
D21*
X236439329Y-136793816D03*
D22*
X235931329Y-136793816D03*
D18*
X234661329Y-136793816D03*
X249901329Y-139333816D03*
D19*
X248631329Y-139333816D03*
D20*
X248123329Y-139333816D03*
D21*
X236439329Y-139333816D03*
D22*
X235931329Y-139333816D03*
D18*
X234661329Y-139333816D03*
D24*
%TO.P,MCU1,1*%
%TO.N,RAW*%
X247107329Y-111393816D03*
%TO.P,MCU1,2*%
%TO.N,GND*%
X247107329Y-113933816D03*
%TO.P,MCU1,3*%
%TO.N,RST*%
X247107329Y-116473816D03*
%TO.P,MCU1,4*%
%TO.N,VCC*%
X247107329Y-119013816D03*
%TO.P,MCU1,5*%
%TO.N,P21*%
X247107329Y-121553816D03*
%TO.P,MCU1,6*%
%TO.N,P20*%
X247107329Y-124093816D03*
%TO.P,MCU1,7*%
%TO.N,P19*%
X247107329Y-126633816D03*
%TO.P,MCU1,8*%
%TO.N,P18*%
X247107329Y-129173816D03*
%TO.P,MCU1,9*%
%TO.N,P15*%
X247107329Y-131713816D03*
%TO.P,MCU1,10*%
%TO.N,P14*%
X247107329Y-134253816D03*
%TO.P,MCU1,11*%
%TO.N,P16*%
X247107329Y-136793816D03*
%TO.P,MCU1,12*%
%TO.N,P10*%
X247107329Y-139333816D03*
D25*
%TO.P,MCU1,13*%
%TO.N,P9*%
X237455329Y-139333816D03*
%TO.P,MCU1,14*%
%TO.N,P8*%
X237455329Y-136793816D03*
%TO.P,MCU1,15*%
%TO.N,P7*%
X237455329Y-134253816D03*
%TO.P,MCU1,16*%
%TO.N,P6*%
X237455329Y-131713816D03*
%TO.P,MCU1,17*%
%TO.N,P5*%
X237455329Y-129173816D03*
%TO.P,MCU1,18*%
%TO.N,P4*%
X237455329Y-126633816D03*
%TO.P,MCU1,19*%
%TO.N,P3*%
X237455329Y-124093816D03*
%TO.P,MCU1,20*%
%TO.N,P2*%
X237455329Y-121553816D03*
%TO.P,MCU1,21*%
%TO.N,GND*%
X237455329Y-119013816D03*
%TO.P,MCU1,22*%
X237455329Y-116473816D03*
%TO.P,MCU1,23*%
%TO.N,P0*%
X237455329Y-113933816D03*
%TO.P,MCU1,24*%
%TO.N,P1*%
X237455329Y-111393816D03*
%TD*%
D14*
%TO.P,S14,1*%
%TO.N,P0*%
X225556329Y-105263815D03*
%TO.P,S14,2*%
%TO.N,GND*%
X214006329Y-107463815D03*
%TD*%
D15*
%TO.P,_7,1*%
%TO.N,N/C*%
X230346806Y-154374956D03*
X231115584Y-153373065D03*
X230511642Y-155627007D03*
X232367635Y-153208229D03*
D16*
X231940584Y-154802007D03*
D15*
X231513533Y-156395785D03*
X233369526Y-153977007D03*
X232765584Y-156230949D03*
X233534362Y-155229058D03*
%TD*%
D12*
%TO.P,S18,1*%
%TO.N,P18*%
X158197083Y-155027520D03*
X148800156Y-158447722D03*
%TO.P,S18,2*%
%TO.N,GND*%
X154216862Y-158710975D03*
X154216862Y-158710975D03*
%TD*%
D15*
%TO.P,_6,1*%
%TO.N,N/C*%
X192631331Y-97080482D03*
X193114605Y-95913756D03*
X193114605Y-98247208D03*
X194281331Y-95430482D03*
D16*
X194281331Y-97080482D03*
D15*
X194281331Y-98730482D03*
X195448057Y-95913756D03*
X195448057Y-98247208D03*
X195931331Y-97080482D03*
%TD*%
D26*
%TO.P,S17,1*%
%TO.N,P20*%
X246170261Y-154904664D03*
%TO.P,S17,2*%
%TO.N,GND*%
X234772646Y-152017301D03*
%TD*%
D12*
%TO.P,S33,1*%
%TO.N,P19*%
X226127448Y-157178427D03*
X216468189Y-154590237D03*
%TO.P,S33,2*%
%TO.N,GND*%
X220754299Y-157912776D03*
X220754299Y-157912776D03*
%TD*%
D27*
%TO.P,S16,1*%
%TO.N,P19*%
X226984711Y-147314188D03*
%TO.P,S16,2*%
%TO.N,GND*%
X215258866Y-146449865D03*
%TD*%
D12*
%TO.P,S27,1*%
%TO.N,P5*%
X209281329Y-129180484D03*
X199281329Y-129180484D03*
%TO.P,S27,2*%
%TO.N,GND*%
X204281329Y-131280484D03*
X204281329Y-131280484D03*
%TD*%
D11*
%TO.P,S5,1*%
%TO.N,P10*%
X165401409Y-107098657D03*
%TO.P,S5,2*%
%TO.N,GND*%
X154408905Y-111270871D03*
%TD*%
D14*
%TO.P,S13,1*%
%TO.N,P2*%
X225556329Y-122263815D03*
%TO.P,S13,2*%
%TO.N,GND*%
X214006329Y-124463815D03*
%TD*%
D17*
%TO.P,S2,1*%
%TO.N,P15*%
X147427073Y-130480726D03*
%TO.P,S2,2*%
%TO.N,GND*%
X137326068Y-136498382D03*
%TD*%
D11*
%TO.P,S4,1*%
%TO.N,P16*%
X168353426Y-123840390D03*
%TO.P,S4,2*%
%TO.N,GND*%
X157360922Y-128012604D03*
%TD*%
D12*
%TO.P,S24,1*%
%TO.N,P8*%
X189686459Y-124718635D03*
X179724512Y-125590193D03*
%TO.P,S24,2*%
%TO.N,GND*%
X184888513Y-127246423D03*
X184888513Y-127246423D03*
%TD*%
%TO.P,S23,1*%
%TO.N,P9*%
X165841252Y-99659259D03*
X155993174Y-101395740D03*
%TO.P,S23,2*%
%TO.N,GND*%
X161281874Y-102595596D03*
X161281874Y-102595596D03*
%TD*%
%TO.P,S34,1*%
%TO.N,P20*%
X243613114Y-164470182D03*
X234550036Y-160243999D03*
%TO.P,S34,2*%
%TO.N,GND*%
X238194076Y-164260337D03*
X238194076Y-164260337D03*
%TD*%
D28*
%TO.P,,1*%
%TO.N,RST*%
X250281330Y-105613817D03*
%TO.P,,2*%
%TO.N,GND*%
X250281330Y-109013817D03*
%TD*%
D12*
%TO.P,S21,1*%
%TO.N,P16*%
X171745289Y-133142723D03*
X161897211Y-134879204D03*
%TO.P,S21,2*%
%TO.N,GND*%
X167185911Y-136079060D03*
X167185911Y-136079060D03*
%TD*%
D15*
%TO.P,_4,1*%
%TO.N,N/C*%
X151665882Y-127288452D03*
X151720967Y-126026799D03*
X152519055Y-128219527D03*
X152652042Y-125173626D03*
D16*
X153216375Y-126724119D03*
D15*
X153780708Y-128274612D03*
X153913695Y-125228711D03*
X154711783Y-127421439D03*
X154766868Y-126159786D03*
%TD*%
D12*
%TO.P,S31,1*%
%TO.N,P0*%
X227281329Y-115013815D03*
X217281329Y-115013815D03*
%TO.P,S31,2*%
%TO.N,GND*%
X222281329Y-117113815D03*
X222281329Y-117113815D03*
%TD*%
%TO.P,S26,1*%
%TO.N,P6*%
X186723166Y-90848012D03*
X176761219Y-91719570D03*
%TO.P,S26,2*%
%TO.N,GND*%
X181925220Y-93375800D03*
X181925220Y-93375800D03*
%TD*%
%TO.P,S22,1*%
%TO.N,P10*%
X168793272Y-116400990D03*
X158945194Y-118137471D03*
%TO.P,S22,2*%
%TO.N,GND*%
X164233894Y-119337327D03*
X164233894Y-119337327D03*
%TD*%
D14*
%TO.P,S12,1*%
%TO.N,P3*%
X207556331Y-85430481D03*
%TO.P,S12,2*%
%TO.N,GND*%
X196006331Y-87630481D03*
%TD*%
D12*
%TO.P,S25,1*%
%TO.N,P7*%
X188204813Y-107783325D03*
X178242866Y-108654883D03*
%TO.P,S25,2*%
%TO.N,GND*%
X183406867Y-110311113D03*
X183406867Y-110311113D03*
%TD*%
D13*
%TO.P,S8,1*%
%TO.N,P7*%
X185636609Y-98220770D03*
%TO.P,S8,2*%
%TO.N,GND*%
X174322303Y-101419048D03*
%TD*%
D12*
%TO.P,S28,1*%
%TO.N,P4*%
X209281328Y-112180481D03*
X199281328Y-112180481D03*
%TO.P,S28,2*%
%TO.N,GND*%
X204281328Y-114280481D03*
X204281328Y-114280481D03*
%TD*%
%TO.P,S32,1*%
%TO.N,P1*%
X227281330Y-98013820D03*
X217281330Y-98013820D03*
%TO.P,S32,2*%
%TO.N,GND*%
X222281330Y-100113820D03*
X222281330Y-100113820D03*
%TD*%
%TO.P,S19,1*%
%TO.N,P15*%
X152382740Y-139052744D03*
X142985813Y-142472946D03*
%TO.P,S19,2*%
%TO.N,GND*%
X148402519Y-142736199D03*
X148402519Y-142736199D03*
%TD*%
D14*
%TO.P,S11,1*%
%TO.N,P4*%
X207556328Y-102430481D03*
%TO.P,S11,2*%
%TO.N,GND*%
X196006328Y-104630481D03*
%TD*%
D17*
%TO.P,S3,1*%
%TO.N,P14*%
X141612730Y-114505951D03*
%TO.P,S3,2*%
%TO.N,GND*%
X131511725Y-120523607D03*
%TD*%
D29*
%TO.P,,*%
%TO.N,*%
X245931331Y-106383818D03*
X245931331Y-104173818D03*
X238631331Y-106383818D03*
X238631331Y-104173818D03*
D30*
%TO.P,,1*%
%TO.N,pos*%
X244531331Y-107033818D03*
%TO.P,,2*%
%TO.N,RAW*%
X241531331Y-107033818D03*
%TO.P,,3*%
%TO.N,N/C*%
X240031331Y-107033818D03*
%TD*%
D31*
%TO.N,P18*%
X243043330Y-129173816D03*
%TO.N,GND*%
X243043329Y-113933815D03*
X241519330Y-119013813D03*
X241519330Y-116473817D03*
%TO.N,P15*%
X243043328Y-131713817D03*
%TO.N,P14*%
X243043329Y-134253815D03*
%TO.N,P16*%
X243043329Y-136793816D03*
%TO.N,P10*%
X243043328Y-139333816D03*
%TO.N,P9*%
X241519330Y-139333814D03*
%TO.N,P8*%
X241519327Y-136793817D03*
%TO.N,P7*%
X241519330Y-134253814D03*
%TO.N,P6*%
X241519331Y-131713815D03*
%TO.N,P5*%
X241519328Y-129173815D03*
%TO.N,P4*%
X241519329Y-126633817D03*
%TO.N,P3*%
X241519331Y-124093812D03*
%TO.N,P2*%
X241519330Y-121553817D03*
%TO.N,P0*%
X241519329Y-113933815D03*
%TO.N,P1*%
X241519327Y-111393818D03*
%TO.N,P19*%
X243043329Y-126633815D03*
%TO.N,P20*%
X243043330Y-124093817D03*
%TO.N,RAW*%
X243043330Y-111393813D03*
%TO.N,RST*%
X243043330Y-116473814D03*
%TO.N,VCC*%
X243043331Y-119013814D03*
%TO.N,P21*%
X243043326Y-121553814D03*
%TD*%
D32*
%TO.N,P0*%
X240747427Y-113180039D02*
X238215427Y-113180038D01*
%TO.N,P18*%
X191786255Y-130837423D02*
X197170316Y-136221484D01*
X243809329Y-129939813D02*
X246341329Y-129939816D01*
X160308828Y-138320060D02*
X173469128Y-138320060D01*
X216139115Y-140404815D02*
X231595753Y-140404815D01*
X159598768Y-137610000D02*
X160308828Y-138320060D01*
X197170316Y-136221484D02*
X211955784Y-136221484D01*
X155793872Y-153906885D02*
X158197083Y-155027521D01*
X153241416Y-146455502D02*
X154940000Y-144756918D01*
X233449754Y-142258816D02*
X250476508Y-142258816D01*
X173469128Y-138320060D02*
X180951765Y-130837423D01*
X250367320Y-130588816D02*
X244458332Y-130588816D01*
X243043330Y-129173816D02*
X243809329Y-129939813D01*
X153151766Y-146647759D02*
X155793872Y-153906885D01*
X153241416Y-146455502D02*
X153151766Y-146647759D01*
X158197083Y-155027521D02*
X148800157Y-158447722D01*
X244458332Y-130588816D02*
X243043330Y-129173816D01*
X250476508Y-142258816D02*
X252376329Y-140358995D01*
X211955784Y-136221484D02*
X216139115Y-140404815D01*
X252376329Y-132597825D02*
X250367320Y-130588816D01*
X157030000Y-137610000D02*
X159598768Y-137610000D01*
X246341329Y-129939816D02*
X247107329Y-129173815D01*
X252376329Y-140358995D02*
X252376329Y-132597825D01*
X180951765Y-130837423D02*
X191786255Y-130837423D01*
X154940000Y-144756918D02*
X154940000Y-139700000D01*
X231595753Y-140404815D02*
X233449754Y-142258816D01*
X154940000Y-139700000D02*
X157030000Y-137610000D01*
%TO.N,GND*%
X138080978Y-128401911D02*
X142588177Y-126761424D01*
X157360925Y-128012603D02*
X158432586Y-134090306D01*
X151456884Y-94529140D02*
X152528548Y-100606843D01*
X235521930Y-154075942D02*
X232913758Y-159669183D01*
X213661574Y-152411039D02*
X216121273Y-156671363D01*
X145576199Y-159165431D02*
X148816667Y-160676486D01*
X233847006Y-162233267D02*
X238194075Y-164260337D01*
X241513429Y-119026036D02*
X240747427Y-118260037D01*
X199484868Y-131280483D02*
X204281330Y-131280484D01*
X217484868Y-134113816D02*
X222281330Y-134113815D01*
X173378534Y-90631712D02*
X177147011Y-93793839D01*
X154408905Y-111270872D02*
X155480569Y-117348574D01*
X172840655Y-84483736D02*
X173378534Y-90631712D01*
X196006329Y-121630484D02*
X196006330Y-127801945D01*
X240747427Y-118260037D02*
X238215430Y-118260038D01*
X214006329Y-90463820D02*
X214006332Y-96635279D01*
X162462322Y-136911957D02*
X167185914Y-136079060D01*
X197974348Y-97280483D02*
X204281330Y-97280481D01*
X215258868Y-146449864D02*
X213661574Y-152411039D01*
X131511726Y-120523608D02*
X133622489Y-126322884D01*
X238215428Y-115720035D02*
X237449427Y-116486039D01*
X243809331Y-114699815D02*
X246341331Y-114699812D01*
X148816667Y-160676486D02*
X154216862Y-158710975D01*
X241513429Y-116486037D02*
X240747428Y-115720037D01*
X196806329Y-88430480D02*
X196806331Y-96112463D01*
X217484870Y-100113818D02*
X222281332Y-100113818D01*
X174860180Y-107567025D02*
X178628656Y-110729151D01*
X158432586Y-134090306D02*
X162462322Y-136911957D01*
X178628656Y-110729151D02*
X183406866Y-110311112D01*
X143140411Y-152473158D02*
X145576199Y-159165431D01*
X156558282Y-103428494D02*
X161281874Y-102595596D01*
X243043329Y-113933815D02*
X243809331Y-114699815D01*
X152528548Y-100606843D02*
X156558282Y-103428494D01*
X196006327Y-104630482D02*
X196006329Y-110801941D01*
X176341827Y-124502333D02*
X180110303Y-127664461D01*
X234772647Y-152017303D02*
X235521930Y-154075942D01*
X217484869Y-117113816D02*
X222281328Y-117113816D01*
X175803948Y-118354356D02*
X176341827Y-124502333D01*
X143895318Y-144376686D02*
X148402517Y-142736201D01*
X240747428Y-115720037D02*
X238215428Y-115720035D01*
X196006330Y-127801945D02*
X199484868Y-131280483D01*
X139436832Y-142297658D02*
X143895318Y-144376686D01*
X244101330Y-109013817D02*
X243901329Y-109213818D01*
X214006332Y-96635279D02*
X217484870Y-100113818D01*
X214006329Y-113635279D02*
X217484869Y-117113816D01*
X159510302Y-120170224D02*
X164233894Y-119337327D01*
X196806331Y-96112463D02*
X197974348Y-97280483D01*
X246341331Y-114699812D02*
X247107330Y-113933815D01*
X214006327Y-124463814D02*
X214006331Y-130635276D01*
X133622489Y-126322884D02*
X138080978Y-128401911D01*
X250281330Y-109013817D02*
X244101330Y-109013817D01*
X214006329Y-107463816D02*
X214006329Y-113635279D01*
X174322301Y-101419048D02*
X174860180Y-107567025D01*
X196006330Y-87630480D02*
X196806329Y-88430480D01*
X155480569Y-117348574D02*
X159510302Y-120170224D01*
X199484867Y-114280480D02*
X204281329Y-114280481D01*
X216121273Y-156671363D02*
X220754299Y-157912778D01*
X214006331Y-130635276D02*
X217484868Y-134113816D01*
X196006329Y-110801941D02*
X199484867Y-114280480D01*
X238215430Y-118260038D02*
X237449429Y-119026036D01*
X232913758Y-159669183D02*
X233847006Y-162233267D01*
X177147011Y-93793839D02*
X181925220Y-93375799D01*
X137326066Y-136498382D02*
X139436832Y-142297658D01*
X180110303Y-127664461D02*
X184888512Y-127246421D01*
%TO.N,P15*%
X243043328Y-131713817D02*
X243809331Y-132479816D01*
X149979527Y-137932109D02*
X152382738Y-139052744D01*
X233636150Y-141808816D02*
X250290112Y-141808816D01*
X231782149Y-139954815D02*
X233636150Y-141808816D01*
X251926329Y-134620000D02*
X251858504Y-134620000D01*
X250188236Y-132949732D02*
X244279243Y-132949732D01*
X152382738Y-139052744D02*
X142985813Y-142472945D01*
X244279243Y-132949732D02*
X243043328Y-131713817D01*
X251926329Y-140172599D02*
X251926329Y-134620000D01*
X191972651Y-130387423D02*
X197356712Y-135771484D01*
X246341327Y-132479817D02*
X247107329Y-131713815D01*
X173282732Y-137870060D02*
X180765369Y-130387423D01*
X154275484Y-137160000D02*
X159785164Y-137160000D01*
X147337422Y-130672983D02*
X149979527Y-137932109D01*
X197356712Y-135771484D02*
X212142180Y-135771484D01*
X243809331Y-132479816D02*
X246341327Y-132479817D01*
X159785164Y-137160000D02*
X160495224Y-137870060D01*
X251858504Y-134620000D02*
X250188236Y-132949732D01*
X160495224Y-137870060D02*
X173282732Y-137870060D01*
X180765369Y-130387423D02*
X191972651Y-130387423D01*
X212142180Y-135771484D02*
X216325511Y-139954815D01*
X250290112Y-141808816D02*
X251926329Y-140172599D01*
X152382740Y-139052744D02*
X154275484Y-137160000D01*
X216325511Y-139954815D02*
X231782149Y-139954815D01*
X147427073Y-130480726D02*
X147337422Y-130672983D01*
%TO.N,P14*%
X166597877Y-137387487D02*
X166630450Y-137420060D01*
X167741372Y-137420060D02*
X168001432Y-137160000D01*
X146568397Y-126074324D02*
X155114073Y-134620000D01*
X192159047Y-129937423D02*
X197543108Y-135321484D01*
X180578973Y-129937423D02*
X192159047Y-129937423D01*
X168001432Y-137160000D02*
X173356396Y-137160000D01*
X231968545Y-139504815D02*
X233822546Y-141358816D01*
X173356396Y-137160000D02*
X180578973Y-129937423D01*
X244458330Y-135668816D02*
X243043329Y-134253815D01*
X141612731Y-114505951D02*
X141523080Y-114698208D01*
X197543108Y-135321484D02*
X212328576Y-135321484D01*
X251476329Y-139986203D02*
X251476329Y-136777825D01*
X233822546Y-141358816D02*
X250103716Y-141358816D01*
X246341331Y-135019815D02*
X247107329Y-134253813D01*
X250103716Y-141358816D02*
X251476329Y-139986203D01*
X144165186Y-121957334D02*
X146568397Y-123077970D01*
X155114073Y-134620000D02*
X157881560Y-134620000D01*
X157881560Y-134620000D02*
X160649047Y-137387487D01*
X243809331Y-135019815D02*
X246341331Y-135019815D01*
X251476329Y-136777825D02*
X250367320Y-135668816D01*
X212328576Y-135321484D02*
X216511907Y-139504815D01*
X243043329Y-134253815D02*
X243809331Y-135019815D01*
X146568397Y-123077970D02*
X137171470Y-126498171D01*
X146568397Y-123077969D02*
X146568397Y-126074324D01*
X160649047Y-137387487D02*
X166597877Y-137387487D01*
X141523080Y-114698208D02*
X144165186Y-121957334D01*
X250367320Y-135668816D02*
X244458330Y-135668816D01*
X166630450Y-137420060D02*
X167741372Y-137420060D01*
X216511907Y-139504815D02*
X231968545Y-139504815D01*
%TO.N,P16*%
X169573186Y-131621798D02*
X171745291Y-133142723D01*
X234008942Y-140908816D02*
X249917320Y-140908816D01*
X171745291Y-133142723D02*
X161897213Y-134879205D01*
X180392577Y-129487423D02*
X192345443Y-129487423D01*
X249917320Y-140908816D02*
X251026329Y-139799807D01*
X197729504Y-134871484D02*
X212514972Y-134871484D01*
X251026329Y-139799807D02*
X251026329Y-138867825D01*
X168231753Y-124014158D02*
X169573186Y-131621798D01*
X176737277Y-133142723D02*
X180392577Y-129487423D01*
X168353428Y-123840389D02*
X168231753Y-124014158D01*
X243809333Y-137559812D02*
X246341330Y-137559814D01*
X244458329Y-138208816D02*
X243043329Y-136793816D01*
X232154941Y-139054815D02*
X234008942Y-140908816D01*
X216698303Y-139054815D02*
X232154941Y-139054815D01*
X192345443Y-129487423D02*
X197729504Y-134871484D01*
X243043329Y-136793816D02*
X243809333Y-137559812D01*
X171745289Y-133142723D02*
X176737277Y-133142723D01*
X250367320Y-138208816D02*
X244458329Y-138208816D01*
X246341330Y-137559814D02*
X247107331Y-136793816D01*
X251026329Y-138867825D02*
X250367320Y-138208816D01*
X212514972Y-134871484D02*
X216698303Y-139054815D01*
%TO.N,P10*%
X168793272Y-118629668D02*
X179201027Y-129037423D01*
X166621168Y-114880065D02*
X168793273Y-116400989D01*
X197915900Y-134421484D02*
X212701368Y-134421484D01*
X234195338Y-140458816D02*
X241918328Y-140458816D01*
X165401411Y-107098657D02*
X165279736Y-107272426D01*
X216884699Y-138604815D02*
X232341337Y-138604815D01*
X168793272Y-116400990D02*
X168793272Y-118629668D01*
X179201027Y-129037423D02*
X192531839Y-129037423D01*
X212701368Y-134421484D02*
X216884699Y-138604815D01*
X241918328Y-140458816D02*
X243043328Y-139333816D01*
X243043328Y-139333816D02*
X243809329Y-140099811D01*
X165279736Y-107272426D02*
X166621168Y-114880065D01*
X243809329Y-140099811D02*
X246341332Y-140099819D01*
X246341332Y-140099819D02*
X247107331Y-139333814D01*
X232341337Y-138604815D02*
X234195338Y-140458816D01*
X168793273Y-116400989D02*
X158945195Y-118137472D01*
X192531839Y-129037423D02*
X197915900Y-134421484D01*
%TO.N,P9*%
X163669146Y-98138334D02*
X165841251Y-99659259D01*
X174070593Y-123270593D02*
X179387423Y-128587423D01*
X217071095Y-138154815D02*
X240340331Y-138154815D01*
X198102296Y-133971484D02*
X212887764Y-133971484D01*
X174070593Y-107888600D02*
X174070593Y-123270593D01*
X162449388Y-90356927D02*
X162327714Y-90530694D01*
X240747429Y-138580033D02*
X238215428Y-138580035D01*
X165841251Y-99659259D02*
X155993173Y-101395742D01*
X212887764Y-133971484D02*
X217071095Y-138154815D01*
X192718235Y-128587423D02*
X198102296Y-133971484D01*
X162327714Y-90530694D02*
X163669146Y-98138334D01*
X165841252Y-99659259D02*
X174070593Y-107888600D01*
X241513427Y-139346038D02*
X240747429Y-138580033D01*
X179387423Y-128587423D02*
X192718235Y-128587423D01*
X240340331Y-138154815D02*
X241519330Y-139333814D01*
X238215428Y-138580035D02*
X237449427Y-139346038D01*
%TO.N,P8*%
X189686459Y-124718635D02*
X189686459Y-124919251D01*
X238215428Y-136040037D02*
X237449428Y-136806034D01*
X228782188Y-135591397D02*
X240316907Y-135591397D01*
X213074160Y-133521484D02*
X217257491Y-137704815D01*
X186981899Y-115318582D02*
X187655177Y-123014186D01*
X240316907Y-135591397D02*
X241519327Y-136793817D01*
X187118255Y-115156080D02*
X186981899Y-115318582D01*
X189686459Y-124718634D02*
X179724512Y-125590192D01*
X189686459Y-124919251D02*
X198288692Y-133521484D01*
X241513428Y-136806037D02*
X240747429Y-136040038D01*
X226668770Y-137704815D02*
X228782188Y-135591397D01*
X217257491Y-137704815D02*
X226668770Y-137704815D01*
X240747429Y-136040038D02*
X238215428Y-136040037D01*
X187655177Y-123014186D02*
X189686459Y-124718634D01*
X198288692Y-133521484D02*
X213074160Y-133521484D01*
%TO.N,P7*%
X185500253Y-98383273D02*
X186173530Y-106078877D01*
X188204812Y-107783325D02*
X178242864Y-108654883D01*
X240384265Y-133118749D02*
X241519330Y-134253814D01*
X240747429Y-133500037D02*
X238215428Y-133500036D01*
X213260556Y-133071484D02*
X217443887Y-137254815D01*
X186173530Y-106078877D02*
X188204812Y-107783325D01*
X185636607Y-98220771D02*
X185500253Y-98383273D01*
X193931329Y-113509841D02*
X193931329Y-128527725D01*
X217443887Y-137254815D02*
X226482374Y-137254815D01*
X226482374Y-137254815D02*
X230618440Y-133118749D01*
X198475088Y-133071484D02*
X213260556Y-133071484D01*
X241513429Y-134266034D02*
X240747429Y-133500037D01*
X193931329Y-128527725D02*
X198475088Y-133071484D01*
X238215428Y-133500036D02*
X237449428Y-134266036D01*
X188204813Y-107783325D02*
X193931329Y-113509841D01*
X230618440Y-133118749D02*
X240384265Y-133118749D01*
%TO.N,P6*%
X241513432Y-131726036D02*
X240747428Y-130960035D01*
X184154962Y-81285459D02*
X184018606Y-81447962D01*
X226295978Y-136804815D02*
X232511977Y-130588816D01*
X194381329Y-128341329D02*
X198661484Y-132621484D01*
X186723167Y-90848013D02*
X176761219Y-91719571D01*
X217630283Y-136804815D02*
X226295978Y-136804815D01*
X232511977Y-130588816D02*
X240394332Y-130588816D01*
X238215427Y-130960035D02*
X237449429Y-131726038D01*
X186723166Y-90848012D02*
X186723166Y-93093207D01*
X198661484Y-132621484D02*
X213446952Y-132621484D01*
X240747428Y-130960035D02*
X238215427Y-130960035D01*
X194381329Y-100751370D02*
X194381329Y-128341329D01*
X184691884Y-89143565D02*
X186723167Y-90848013D01*
X184018606Y-81447962D02*
X184691884Y-89143565D01*
X186723166Y-93093207D02*
X194381329Y-100751370D01*
X240394332Y-130588816D02*
X241519331Y-131713815D01*
X213446952Y-132621484D02*
X217630283Y-136804815D01*
%TO.N,P5*%
X210706329Y-129180484D02*
X210706329Y-129244465D01*
X210706329Y-129244465D02*
X217816679Y-136354815D01*
X238215429Y-128420039D02*
X237449427Y-129186035D01*
X232640768Y-128039232D02*
X240384745Y-128039232D01*
X207406330Y-119580483D02*
X207406329Y-127305483D01*
X240747426Y-128420039D02*
X238215429Y-128420039D01*
X209281329Y-129180484D02*
X210706329Y-129180484D01*
X207556329Y-119430484D02*
X207406330Y-119580483D01*
X226109582Y-136354815D02*
X230056329Y-132408068D01*
X240384745Y-128039232D02*
X241519328Y-129173815D01*
X230056329Y-130623671D02*
X232640768Y-128039232D01*
X207406329Y-127305483D02*
X209281329Y-129180483D01*
X209281329Y-129180483D02*
X199281329Y-129180483D01*
X230056329Y-132408068D02*
X230056329Y-130623671D01*
X217816679Y-136354815D02*
X226109582Y-136354815D01*
X241513430Y-129186036D02*
X240747426Y-128420039D01*
%TO.N,P4*%
X211156329Y-114055482D02*
X211156329Y-129058069D01*
X225923186Y-135904815D02*
X229606329Y-132221672D01*
X218003075Y-135904815D02*
X225923186Y-135904815D01*
X207406329Y-102580480D02*
X207406328Y-110305482D01*
X238215429Y-125880035D02*
X237449431Y-126646036D01*
X209281328Y-112180481D02*
X211156329Y-114055482D01*
X229606329Y-132221672D02*
X229606329Y-128533671D01*
X211156329Y-129058069D02*
X218003075Y-135904815D01*
X229606329Y-128533671D02*
X232631184Y-125508816D01*
X241513428Y-126646036D02*
X240747429Y-125880038D01*
X240747429Y-125880038D02*
X238215429Y-125880035D01*
X232631184Y-125508816D02*
X240394328Y-125508816D01*
X209281328Y-112180480D02*
X199281328Y-112180481D01*
X207406328Y-110305482D02*
X209281328Y-112180480D01*
X207556328Y-102430481D02*
X207406329Y-102580480D01*
X240394328Y-125508816D02*
X241519329Y-126633817D01*
%TO.N,P3*%
X238215431Y-123340036D02*
X237449426Y-124106037D01*
X211898246Y-100237821D02*
X212381329Y-100237821D01*
X209281331Y-95180481D02*
X209281331Y-97620906D01*
X229156329Y-123903671D02*
X230105745Y-122954255D01*
X209281331Y-95180482D02*
X199281331Y-95180480D01*
X207556331Y-85430481D02*
X207406330Y-85580481D01*
X207406331Y-93305480D02*
X209281331Y-95180482D01*
X240379774Y-122954255D02*
X241519331Y-124093812D01*
X209281331Y-97620906D02*
X211898246Y-100237821D01*
X212381329Y-100237821D02*
X212381329Y-129646673D01*
X241513430Y-124106037D02*
X240747429Y-123340036D01*
X229156329Y-132035276D02*
X229156329Y-123903671D01*
X212381329Y-129646673D02*
X218189471Y-135454815D01*
X230105745Y-122954255D02*
X240379774Y-122954255D01*
X225736790Y-135454815D02*
X229156329Y-132035276D01*
X240747429Y-123340036D02*
X238215431Y-123340036D01*
X207406330Y-85580481D02*
X207406331Y-93305480D01*
X218189471Y-135454815D02*
X225736790Y-135454815D01*
%TO.N,P2*%
X241513428Y-121566039D02*
X240747431Y-120800036D01*
X240394329Y-120428816D02*
X241519330Y-121553817D01*
X238215428Y-120800037D02*
X237449430Y-121566037D01*
X225556329Y-122263815D02*
X227391328Y-120428816D01*
X227391328Y-120428816D02*
X240394329Y-120428816D01*
X240747431Y-120800036D02*
X238215428Y-120800037D01*
X225406330Y-122413817D02*
X225406328Y-130138815D01*
X225406328Y-130138815D02*
X227281329Y-132013817D01*
X227281329Y-132013817D02*
X217281330Y-132013814D01*
X225556329Y-122263814D02*
X225406330Y-122413817D01*
%TO.N,P0*%
X225406329Y-113138817D02*
X227281330Y-115013816D01*
X241513428Y-113946033D02*
X240747427Y-113180039D01*
X229486328Y-112808816D02*
X240394330Y-112808816D01*
X240394330Y-112808816D02*
X241519329Y-113933815D01*
X227281330Y-115013816D02*
X217281330Y-115013816D01*
X227281329Y-115013815D02*
X229486328Y-112808816D01*
X225406329Y-105413817D02*
X225406329Y-113138817D01*
X238215427Y-113180038D02*
X237449430Y-113946035D01*
X225556329Y-105263816D02*
X225406329Y-105413817D01*
%TO.N,P1*%
X236795395Y-109220000D02*
X238215429Y-110640034D01*
X235281513Y-109220000D02*
X236795395Y-109220000D01*
X227281330Y-101219817D02*
X235281513Y-109220000D01*
X241513431Y-111406035D02*
X240747426Y-110640033D01*
X225406331Y-96138820D02*
X227281331Y-98013818D01*
X240747426Y-110640033D02*
X238215429Y-110640034D01*
X238215429Y-110640034D02*
X237449427Y-111406037D01*
X227281330Y-98013820D02*
X227281330Y-101219817D01*
X225556331Y-88263818D02*
X225406332Y-88413818D01*
X225406332Y-88413818D02*
X225406331Y-96138820D01*
X227281331Y-98013818D02*
X217281331Y-98013819D01*
%TO.N,P19*%
X246341333Y-127399816D02*
X247107330Y-126633816D01*
X252826329Y-130507825D02*
X250147588Y-127829084D01*
X250147588Y-127829084D02*
X244238598Y-127829084D01*
X243809329Y-127399816D02*
X246341333Y-127399816D01*
X244238598Y-127829084D02*
X243043329Y-126633815D01*
X226984709Y-147314188D02*
X226800998Y-147420254D01*
X231590083Y-142708816D02*
X250662904Y-142708816D01*
X226127450Y-157178426D02*
X216468187Y-154590236D01*
X243043329Y-126633815D02*
X243809329Y-127399816D01*
X226800998Y-147420254D02*
X224801622Y-154882029D01*
X226984711Y-147314188D02*
X231590083Y-142708816D01*
X224801622Y-154882029D02*
X226127450Y-157178426D01*
X252826329Y-140545391D02*
X252826329Y-130507825D01*
X250662904Y-142708816D02*
X252826329Y-140545391D01*
%TO.N,P20*%
X246170261Y-154904664D02*
X245970923Y-154977221D01*
X244168329Y-125218816D02*
X243043330Y-124093817D01*
X246170261Y-154904664D02*
X246170261Y-143368555D01*
X250849300Y-143158816D02*
X253276329Y-140731787D01*
X243043330Y-124093817D02*
X243809330Y-124859816D01*
X245970923Y-154977221D02*
X242706196Y-161978448D01*
X243809330Y-124859816D02*
X246341327Y-124859814D01*
X243613116Y-164470183D02*
X234550036Y-160244002D01*
X246170261Y-143368555D02*
X246380000Y-143158816D01*
X250077320Y-125218816D02*
X244168329Y-125218816D01*
X246341327Y-124859814D02*
X247107329Y-124093814D01*
X253276329Y-128417825D02*
X250077320Y-125218816D01*
X253276329Y-140731787D02*
X253276329Y-128417825D01*
X242706196Y-161978448D02*
X243613116Y-164470183D01*
X246380000Y-143158816D02*
X250849300Y-143158816D01*
%TO.N,RAW*%
X246341333Y-112159816D02*
X247107329Y-111393815D01*
X241862629Y-110213112D02*
X243043330Y-111393813D01*
X241531331Y-107033818D02*
X241862629Y-107365116D01*
X241862629Y-107365116D02*
X241862629Y-110213112D01*
X243043330Y-111393813D02*
X243809330Y-112159816D01*
X243809330Y-112159816D02*
X246341333Y-112159816D01*
%TO.N,RST*%
X243043330Y-116473814D02*
X243809329Y-117239813D01*
X246341329Y-117239818D02*
X247107327Y-116473817D01*
X243809329Y-117239813D02*
X246341329Y-117239818D01*
X250281330Y-105613817D02*
X251456330Y-106788817D01*
X251456330Y-106788817D02*
X251456330Y-114173816D01*
X248232329Y-115348816D02*
X247107329Y-116473816D01*
X251456330Y-114173816D02*
X250281330Y-115348816D01*
X250281330Y-115348816D02*
X248232329Y-115348816D01*
%TO.N,VCC*%
X243809331Y-119779818D02*
X246341329Y-119779814D01*
X243043331Y-119013814D02*
X243809331Y-119779818D01*
X246341329Y-119779814D02*
X247107331Y-119013815D01*
%TO.N,P21*%
X243043326Y-121553814D02*
X243809331Y-122319813D01*
X246341330Y-122319815D02*
X247107330Y-121553817D01*
X243809331Y-122319813D02*
X246341330Y-122319815D01*
%TO.N,pos*%
X240748423Y-104140000D02*
X243840000Y-104140000D01*
X239229605Y-105658818D02*
X240748423Y-104140000D01*
X240661329Y-109213818D02*
X239911331Y-109213818D01*
X237806331Y-107108818D02*
X237806331Y-105658818D01*
X244606331Y-104906331D02*
X244606331Y-106958818D01*
X243840000Y-104140000D02*
X244606331Y-104906331D01*
X237806331Y-105658818D02*
X239229605Y-105658818D01*
X244606331Y-106958818D02*
X244531331Y-107033818D01*
X239911331Y-109213818D02*
X237806331Y-107108818D01*
%TD*%
M02*
