0
SECTION
2
HEADER
9
$INSUNITS
70
4
0
ENDSEC
0
SECTION
2
TABLES
0
TABLE
2
LTYPE
0
LTYPE
72
65
70
64
2
CONTINUOUS
3
______
73
0
40
0
0
ENDTAB
0
TABLE
2
LAYER
0
ENDTAB
0
ENDSEC
0
SECTION
2
ENTITIES
0
LINE
8
0
10
152.8112964
20
-104.2122017
11
130.048039
21
-110.3115981
0
LINE
8
0
10
129.3409322
20
-111.5363429
11
142.6300889
21
-161.1321503
0
LINE
8
0
10
241.9022283
20
-176.073465
11
250.9504376
21
-160.4015069
0
LINE
8
0
10
251.0806069
20
-159.9886626
11
255.4037815
21
-110.5745504
0
LINE
8
0
10
254.4943051
20
-109.4911618
11
235.0844308
21
-107.801606
0
LINE
8
0
10
234.1749544
20
-106.7182174
11
235.6565638
21
-89.783345
0
LINE
8
0
10
234.7475248
20
-88.6999946
11
218.8084097
21
-87.3055026
0
LINE
8
0
10
217.8993707
20
-86.2221522
11
217.9720005
21
-85.39199
0
LINE
8
0
10
217.0629615
20
-84.3086396
11
195.8367914
21
-82.4515903
0
LINE
8
0
10
194.9242835
20
-81.4813332
11
194.8495602
21
-78.6014129
0
LINE
8
0
10
193.8498966
20
-77.6273505
11
175.8307464
21
-77.6273505
0
LINE
8
0
10
174.8307671
20
-78.6337891
11
174.8590965
21
-83.0336323
0
LINE
8
0
10
173.9462729
20
-84.0362656
11
153.1417292
21
-85.8564273
0
LINE
8
0
10
152.2321605
20
-86.9334953
11
153.5492018
21
-103.1654026
0
ARC
8
0
10
130.306858
20
-111.2775239
40
1
50
104.9999979
51
194.9999979
0
ARC
8
0
10
143.5960147
20
-160.8733313
40
1
50
194.9999979
51
257.418196
0
ARC
8
0
10
241.0362029
20
-175.573465
40
1
50
307.4398488
51
329.9999999
0
ARC
8
0
10
250.0844122
20
-159.9015069
40
1
50
329.9999999
51
355.0000024
0
ARC
8
0
10
254.4075868
20
-110.4873947
40
1
50
355.0000024
51
85.025159
0
ARC
8
0
10
235.1711491
20
-106.8053731
40
1
50
175.0000024
51
265.025159
0
ARC
8
0
10
234.6603691
20
-89.6961893
40
1
50
355.0000024
51
85.0000024
0
ARC
8
0
10
218.8955654
20
-86.3093079
40
1
50
175.0000024
51
265.0000024
0
ARC
8
0
10
216.9758058
20
-85.3048343
40
1
50
355.0000024
51
85.0000024
0
ARC
8
0
10
195.9239471
20
-81.4553956
40
1
50
181.4862816
51
265.0000024
0
ARC
8
0
10
193.8498966
20
-78.6273505
40
1
50
1.4862816
51
90
0
ARC
8
0
10
175.8307464
20
-78.6273505
40
1
50
90
51
180.3689071
0
ARC
8
0
10
173.8591172
20
-83.0400709
40
1
50
274.9999976
51
0.3689071
0
ARC
8
0
10
153.2288849
20
-86.852622
40
1
50
94.9999976
51
184.6387648
0
ARC
8
0
10
152.5524774
20
-103.2462759
40
1
50
284.9999979
51
4.6387648
0
ARC
8
0
10
171.8242869
20
-309.1273505
40
150
50
422.2596391
51
460.9318168
0
LINE
8
0
10
143.6834061
20
-160.2335547
11
160.5871081
21
-155.7042214
0
LINE
8
0
10
160.5871081
20
-155.7042214
11
156.3165939
21
-139.7664453
0
LINE
8
0
10
156.3165939
20
-139.7664453
11
139.4128919
21
-144.2957786
0
LINE
8
0
10
139.4128919
20
-144.2957786
11
143.6834061
21
-160.2335547
0
LINE
8
0
10
139.2834823
20
-143.8128157
11
156.1871843
21
-139.2834824
0
LINE
8
0
10
156.1871843
20
-139.2834824
11
151.9166701
21
-123.3457063
0
LINE
8
0
10
151.9166701
20
-123.3457063
11
135.0129681
21
-127.8750396
0
LINE
8
0
10
135.0129681
20
-127.8750396
11
139.2834823
21
-143.8128157
0
LINE
8
0
10
134.8835585
20
-127.3920767
11
151.7872605
21
-122.8627434
0
LINE
8
0
10
151.7872605
20
-122.8627434
11
147.5167463
21
-106.9249673
0
LINE
8
0
10
147.5167463
20
-106.9249673
11
130.6130443
21
-111.4543006
0
LINE
8
0
10
130.6130443
20
-111.4543006
11
134.8835585
21
-127.3920767
0
LINE
8
0
10
157.9073485
20
-137.3871663
11
175.3407557
21
-135.8619408
0
LINE
8
0
10
175.3407557
20
-135.8619408
11
173.9026859
21
-119.4247283
0
LINE
8
0
10
173.9026859
20
-119.4247283
11
156.4692787
21
-120.9499538
0
LINE
8
0
10
156.4692787
20
-120.9499538
11
157.9073485
21
-137.3871663
0
LINE
8
0
10
156.4257009
20
-120.4518564
11
173.8591081
21
-118.9266309
0
LINE
8
0
10
173.8591081
20
-118.9266309
11
172.4210383
21
-102.4894184
0
LINE
8
0
10
172.4210383
20
-102.4894184
11
154.9876311
21
-104.0146439
0
LINE
8
0
10
154.9876311
20
-104.0146439
11
156.4257009
21
-120.4518564
0
LINE
8
0
10
154.9440533
20
-103.5165465
11
172.3774605
21
-101.991321
0
LINE
8
0
10
172.3774605
20
-101.991321
11
170.9393907
21
-85.5541085
0
LINE
8
0
10
170.9393907
20
-85.5541085
11
153.5059835
21
-87.079334
0
LINE
8
0
10
153.5059835
20
-87.079334
11
154.9440533
21
-103.5165465
0
LINE
8
0
10
176.0742869
20
-129.3773505
11
193.5742869
21
-129.3773505
0
LINE
8
0
10
193.5742869
20
-129.3773505
11
193.5742869
21
-112.8773505
0
LINE
8
0
10
193.5742869
20
-112.8773505
11
176.0742869
21
-112.8773505
0
LINE
8
0
10
176.0742869
20
-112.8773505
11
176.0742869
21
-129.3773505
0
LINE
8
0
10
176.0742869
20
-112.3773505
11
193.5742869
21
-112.3773505
0
LINE
8
0
10
193.5742869
20
-112.3773505
11
193.5742869
21
-95.8773505
0
LINE
8
0
10
193.5742869
20
-95.8773505
11
176.0742869
21
-95.8773505
0
LINE
8
0
10
176.0742869
20
-95.8773505
11
176.0742869
21
-112.3773505
0
LINE
8
0
10
176.0742869
20
-95.3773505
11
193.5742869
21
-95.3773505
0
LINE
8
0
10
193.5742869
20
-95.3773505
11
193.5742869
21
-78.8773505
0
LINE
8
0
10
193.5742869
20
-78.8773505
11
176.0742869
21
-78.8773505
0
LINE
8
0
10
176.0742869
20
-78.8773505
11
176.0742869
21
-95.3773505
0
LINE
8
0
10
194.870196
20
-134.3147008
11
212.3036032
21
-135.8399263
0
LINE
8
0
10
212.3036032
20
-135.8399263
11
213.741673
21
-119.4027138
0
LINE
8
0
10
213.741673
20
-119.4027138
11
196.3082658
21
-117.8774883
0
LINE
8
0
10
196.3082658
20
-117.8774883
11
194.870196
21
-134.3147008
0
LINE
8
0
10
196.3518436
20
-117.3793909
11
213.7852508
21
-118.9046164
0
LINE
8
0
10
213.7852508
20
-118.9046164
11
215.2233206
21
-102.4674039
0
LINE
8
0
10
215.2233206
20
-102.4674039
11
197.7899134
21
-100.9421784
0
LINE
8
0
10
197.7899134
20
-100.9421784
11
196.3518436
21
-117.3793909
0
LINE
8
0
10
197.8334912
20
-100.444081
11
215.2668984
21
-101.9693065
0
LINE
8
0
10
215.2668984
20
-101.9693065
11
216.7049682
21
-85.532094
0
LINE
8
0
10
216.7049682
20
-85.532094
11
199.271561
21
-84.0068685
0
LINE
8
0
10
199.271561
20
-84.0068685
11
197.8334912
21
-100.444081
0
LINE
8
0
10
212.5547593
20
-138.7060558
11
229.9881665
21
-140.2312813
0
LINE
8
0
10
229.9881665
20
-140.2312813
11
231.4262363
21
-123.7940688
0
LINE
8
0
10
231.4262363
20
-123.7940688
11
213.9928291
21
-122.2688433
0
LINE
8
0
10
213.9928291
20
-122.2688433
11
212.5547593
21
-138.7060558
0
LINE
8
0
10
214.0364069
20
-121.7707459
11
231.4698141
21
-123.2959714
0
LINE
8
0
10
231.4698141
20
-123.2959714
11
232.9078839
21
-106.8587589
0
LINE
8
0
10
232.9078839
20
-106.8587589
11
215.4744767
21
-105.3335334
0
LINE
8
0
10
215.4744767
20
-105.3335334
11
214.0364069
21
-121.7707459
0
LINE
8
0
10
215.5180545
20
-104.835436
11
232.9514617
21
-106.3606615
0
LINE
8
0
10
232.9514617
20
-106.3606615
11
234.3895315
21
-89.923449
0
LINE
8
0
10
234.3895315
20
-89.923449
11
216.9561243
21
-88.3982235
0
LINE
8
0
10
216.9561243
20
-88.3982235
11
215.5180545
21
-104.835436
0
LINE
8
0
10
208.8547834
20
-159.918523
11
225.2994042
21
-165.9038755
0
LINE
8
0
10
225.2994042
20
-165.9038755
11
230.9427366
21
-150.3989472
0
LINE
8
0
10
230.9427366
20
-150.3989472
11
214.4981158
21
-144.4135947
0
LINE
8
0
10
214.4981158
20
-144.4135947
11
208.8547834
21
-159.918523
0
LINE
8
0
10
225.9483086
20
-166.2064646
11
241.1037532
21
-174.9564646
0
LINE
8
0
10
241.1037532
20
-174.9564646
11
249.3537532
21
-160.6670454
0
LINE
8
0
10
249.3537532
20
-160.6670454
11
234.1983086
21
-151.9170454
0
LINE
8
0
10
234.1983086
20
-151.9170454
11
225.9483086
21
-166.2064646
0
ENDSEC
0
EOF