0
SECTION
2
HEADER
9
$INSUNITS
70
4
0
ENDSEC
0
SECTION
2
TABLES
0
TABLE
2
LTYPE
0
LTYPE
72
65
70
64
2
CONTINUOUS
3
______
73
0
40
0
0
ENDTAB
0
TABLE
2
LAYER
0
ENDTAB
0
ENDSEC
0
SECTION
2
ENTITIES
0
LINE
8
0
10
152.8112964
20
-104.2122017
11
130.048039
21
-110.3115981
0
LINE
8
0
10
129.3409322
20
-111.5363429
11
142.6300889
21
-161.1321503
0
LINE
8
0
10
241.9022283
20
-176.073465
11
250.9504376
21
-160.4015069
0
LINE
8
0
10
251.0806069
20
-159.9886626
11
255.4037815
21
-110.5745504
0
LINE
8
0
10
254.4943051
20
-109.4911618
11
235.0844308
21
-107.801606
0
LINE
8
0
10
234.1749544
20
-106.7182174
11
235.6565638
21
-89.783345
0
LINE
8
0
10
234.7475248
20
-88.6999946
11
218.8084097
21
-87.3055026
0
LINE
8
0
10
217.8993707
20
-86.2221522
11
217.9720005
21
-85.39199
0
LINE
8
0
10
217.0629615
20
-84.3086396
11
195.8367914
21
-82.4515903
0
LINE
8
0
10
194.9242835
20
-81.4813332
11
194.8495602
21
-78.6014129
0
LINE
8
0
10
193.8498966
20
-77.6273505
11
175.8307464
21
-77.6273505
0
LINE
8
0
10
174.8307671
20
-78.6337891
11
174.8590965
21
-83.0336323
0
LINE
8
0
10
173.9462729
20
-84.0362656
11
153.1417292
21
-85.8564273
0
LINE
8
0
10
152.2321605
20
-86.9334953
11
153.5492018
21
-103.1654026
0
ARC
8
0
10
130.306858
20
-111.2775239
40
1
50
104.9999979
51
194.9999979
0
ARC
8
0
10
143.5960147
20
-160.8733313
40
1
50
194.9999979
51
257.418196
0
ARC
8
0
10
241.0362029
20
-175.573465
40
1
50
307.4398488
51
329.9999999
0
ARC
8
0
10
250.0844122
20
-159.9015069
40
1
50
329.9999999
51
355.0000024
0
ARC
8
0
10
254.4075868
20
-110.4873947
40
1
50
355.0000024
51
85.025159
0
ARC
8
0
10
235.1711491
20
-106.8053731
40
1
50
175.0000024
51
265.025159
0
ARC
8
0
10
234.6603691
20
-89.6961893
40
1
50
355.0000024
51
85.0000024
0
ARC
8
0
10
218.8955654
20
-86.3093079
40
1
50
175.0000024
51
265.0000024
0
ARC
8
0
10
216.9758058
20
-85.3048343
40
1
50
355.0000024
51
85.0000024
0
ARC
8
0
10
195.9239471
20
-81.4553956
40
1
50
181.4862816
51
265.0000024
0
ARC
8
0
10
193.8498966
20
-78.6273505
40
1
50
1.4862816
51
90
0
ARC
8
0
10
175.8307464
20
-78.6273505
40
1
50
90
51
180.3689071
0
ARC
8
0
10
173.8591172
20
-83.0400709
40
1
50
274.9999976
51
0.3689071
0
ARC
8
0
10
153.2288849
20
-86.852622
40
1
50
94.9999976
51
184.6387648
0
ARC
8
0
10
152.5524774
20
-103.2462759
40
1
50
284.9999979
51
4.6387648
0
ARC
8
0
10
171.8242869
20
-309.1273505
40
150
50
422.2596391
51
460.9318168
0
ENDSEC
0
EOF