0
SECTION
2
HEADER
9
$INSUNITS
70
4
0
ENDSEC
0
SECTION
2
TABLES
0
TABLE
2
LTYPE
0
LTYPE
72
65
70
64
2
CONTINUOUS
3
______
73
0
40
0
0
ENDTAB
0
TABLE
2
LAYER
0
ENDTAB
0
ENDSEC
0
SECTION
2
ENTITIES
0
LINE
8
0
10
145.1209632
20
-158.4507396
11
158.4507396
21
-154.8790368
0
LINE
8
0
10
158.4507396
20
-154.8790368
11
154.8790368
21
-141.5492604
0
LINE
8
0
10
154.8790368
20
-141.5492604
11
141.5492604
21
-145.1209632
0
LINE
8
0
10
141.5492604
20
-145.1209632
11
145.1209632
21
-158.4507396
0
LINE
8
0
10
140.7210394
20
-142.0300006
11
154.0508158
21
-138.4582978
0
LINE
8
0
10
154.0508158
20
-138.4582978
11
150.479113
21
-125.1285214
0
LINE
8
0
10
150.479113
20
-125.1285214
11
137.1493366
21
-128.7002242
0
LINE
8
0
10
137.1493366
20
-128.7002242
11
140.7210394
21
-142.0300006
0
LINE
8
0
10
136.3211156
20
-125.6092616
11
149.650892
21
-122.0375588
0
LINE
8
0
10
149.650892
20
-122.0375588
11
146.0791892
21
-108.7077824
0
LINE
8
0
10
146.0791892
20
-108.7077824
11
132.7494128
21
-112.2794852
0
LINE
8
0
10
132.7494128
20
-112.2794852
11
136.3211156
21
-125.6092616
0
LINE
8
0
10
159.6326484
20
-135.8810653
11
173.3801352
21
-134.6783161
0
LINE
8
0
10
173.3801352
20
-134.6783161
11
172.177386
21
-120.9308293
0
LINE
8
0
10
172.177386
20
-120.9308293
11
158.4298992
21
-122.1335785
0
LINE
8
0
10
158.4298992
20
-122.1335785
11
159.6326484
21
-135.8810653
0
LINE
8
0
10
158.1510008
20
-118.9457554
11
171.8984876
21
-117.7430062
0
LINE
8
0
10
171.8984876
20
-117.7430062
11
170.6957384
21
-103.9955194
0
LINE
8
0
10
170.6957384
20
-103.9955194
11
156.9482516
21
-105.1982686
0
LINE
8
0
10
156.9482516
20
-105.1982686
11
158.1510008
21
-118.9457554
0
LINE
8
0
10
156.6693532
20
-102.0104455
11
170.41684
21
-100.8076963
0
LINE
8
0
10
170.41684
20
-100.8076963
11
169.2140908
21
-87.0602095
0
LINE
8
0
10
169.2140908
20
-87.0602095
11
155.466604
21
-88.2629587
0
LINE
8
0
10
155.466604
20
-88.2629587
11
156.6693532
21
-102.0104455
0
LINE
8
0
10
177.9242869
20
-128.0273505
11
191.7242869
21
-128.0273505
0
LINE
8
0
10
191.7242869
20
-128.0273505
11
191.7242869
21
-114.2273505
0
LINE
8
0
10
191.7242869
20
-114.2273505
11
177.9242869
21
-114.2273505
0
LINE
8
0
10
177.9242869
20
-114.2273505
11
177.9242869
21
-128.0273505
0
LINE
8
0
10
177.9242869
20
-111.0273505
11
191.7242869
21
-111.0273505
0
LINE
8
0
10
191.7242869
20
-111.0273505
11
191.7242869
21
-97.2273505
0
LINE
8
0
10
191.7242869
20
-97.2273505
11
177.9242869
21
-97.2273505
0
LINE
8
0
10
177.9242869
20
-97.2273505
11
177.9242869
21
-111.0273505
0
LINE
8
0
10
177.9242869
20
-94.0273505
11
191.7242869
21
-94.0273505
0
LINE
8
0
10
191.7242869
20
-94.0273505
11
191.7242869
21
-80.2273505
0
LINE
8
0
10
191.7242869
20
-80.2273505
11
177.9242869
21
-80.2273505
0
LINE
8
0
10
177.9242869
20
-80.2273505
11
177.9242869
21
-94.0273505
0
LINE
8
0
10
196.8308165
20
-133.1310761
11
210.5783033
21
-134.3338253
0
LINE
8
0
10
210.5783033
20
-134.3338253
11
211.7810525
21
-120.5863385
0
LINE
8
0
10
211.7810525
20
-120.5863385
11
198.0335657
21
-119.3835893
0
LINE
8
0
10
198.0335657
20
-119.3835893
11
196.8308165
21
-133.1310761
0
LINE
8
0
10
198.3124641
20
-116.1957662
11
212.0599509
21
-117.3985154
0
LINE
8
0
10
212.0599509
20
-117.3985154
11
213.2627001
21
-103.6510286
0
LINE
8
0
10
213.2627001
20
-103.6510286
11
199.5152133
21
-102.4482794
0
LINE
8
0
10
199.5152133
20
-102.4482794
11
198.3124641
21
-116.1957662
0
LINE
8
0
10
199.7941117
20
-99.2604563
11
213.5415985
21
-100.4632055
0
LINE
8
0
10
213.5415985
20
-100.4632055
11
214.7443477
21
-86.7157187
0
LINE
8
0
10
214.7443477
20
-86.7157187
11
200.9968609
21
-85.5129695
0
LINE
8
0
10
200.9968609
20
-85.5129695
11
199.7941117
21
-99.2604563
0
LINE
8
0
10
214.5153798
20
-137.5224311
11
228.2628666
21
-138.7251803
0
LINE
8
0
10
228.2628666
20
-138.7251803
11
229.4656158
21
-124.9776935
0
LINE
8
0
10
229.4656158
20
-124.9776935
11
215.718129
21
-123.7749443
0
LINE
8
0
10
215.718129
20
-123.7749443
11
214.5153798
21
-137.5224311
0
LINE
8
0
10
215.9970274
20
-120.5871212
11
229.7445142
21
-121.7898704
0
LINE
8
0
10
229.7445142
20
-121.7898704
11
230.9472634
21
-108.0423836
0
LINE
8
0
10
230.9472634
20
-108.0423836
11
217.1997766
21
-106.8396344
0
LINE
8
0
10
217.1997766
20
-106.8396344
11
215.9970274
21
-120.5871212
0
LINE
8
0
10
217.478675
20
-103.6518113
11
231.2261618
21
-104.8545605
0
LINE
8
0
10
231.2261618
20
-104.8545605
11
232.428911
21
-91.1070737
0
LINE
8
0
10
232.428911
20
-91.1070737
11
218.6814242
21
-89.9043245
0
LINE
8
0
10
218.6814242
20
-89.9043245
11
217.478675
21
-103.6518113
0
LINE
8
0
10
211.0549419
20
-159.2826752
11
224.0227001
21
-164.0025532
0
LINE
8
0
10
224.0227001
20
-164.0025532
11
228.7425781
21
-151.034795
0
LINE
8
0
10
228.7425781
20
-151.034795
11
215.7748199
21
-146.314917
0
LINE
8
0
10
215.7748199
20
-146.314917
11
211.0549419
21
-159.2826752
0
LINE
8
0
10
228.2254556
20
-165.9623303
11
240.1766062
21
-172.8623303
0
LINE
8
0
10
240.1766062
20
-172.8623303
11
247.0766062
21
-160.9111797
0
LINE
8
0
10
247.0766062
20
-160.9111797
11
235.1254556
21
-154.0111797
0
LINE
8
0
10
235.1254556
20
-154.0111797
11
228.2254556
21
-165.9623303
0
ENDSEC
0
EOF