0
SECTION
2
HEADER
9
$INSUNITS
70
4
0
ENDSEC
0
SECTION
2
TABLES
0
TABLE
2
LTYPE
0
LTYPE
72
65
70
64
2
CONTINUOUS
3
______
73
0
40
0
0
ENDTAB
0
TABLE
2
LAYER
0
ENDTAB
0
ENDSEC
0
SECTION
2
ENTITIES
0
LINE
8
0
10
150.3756321
20
-102.7942836
11
127.5985493
21
-108.8973845
0
LINE
8
0
10
126.8914425
20
-110.1221293
11
141.2158014
21
-163.5813643
0
LINE
8
0
10
142.0329472
20
-164.3114156
11
241.6193274
21
-179.2946395
0
LINE
8
0
10
242.6341328
20
-178.8057692
11
253.6824884
21
-159.6694561
0
LINE
8
0
10
253.8126577
20
-159.2566118
11
258.2231176
21
-108.8448247
0
LINE
8
0
10
257.3151218
20
-107.7615661
11
237.2495216
21
-105.9848782
0
LINE
8
0
10
236.3415258
20
-104.9016196
11
237.8232647
21
-87.9652671
0
LINE
8
0
10
236.9142257
20
-86.8819167
11
220.9751106
21
-85.4874247
0
LINE
8
0
10
220.0660716
20
-84.4040743
11
220.1387014
21
-83.5739121
0
LINE
8
0
10
219.2296624
20
-82.4905617
11
197.9745501
21
-80.6309803
0
LINE
8
0
10
197.0634308
20
-79.6934975
11
196.8796472
21
-76.5686386
0
LINE
8
0
10
195.8813722
20
-75.6273505
11
173.8051277
21
-75.6273505
0
LINE
8
0
10
172.8053148
20
-76.6080078
11
172.7157168
21
-81.2392808
0
LINE
8
0
10
171.8030596
20
-82.2161328
11
150.9583331
21
-84.0398101
0
LINE
8
0
10
150.0475332
20
-85.0999162
11
151.1147687
21
-101.7644464
0
ARC
8
0
10
127.8573683
20
-109.8633103
40
1
50
104.9999979
51
194.9999979
0
ARC
8
0
10
142.1817272
20
-163.3225453
40
1
50
194.9999979
51
261.4437674
0
ARC
8
0
10
241.7681074
20
-178.3057692
40
1
50
261.4437674
51
329.9999999
0
ARC
8
0
10
252.816463
20
-159.1694561
40
1
50
329.9999999
51
355.0000024
0
ARC
8
0
10
257.2269229
20
-108.757669
40
1
50
355.0000024
51
84.9400005
0
ARC
8
0
10
237.3377205
20
-104.9887753
40
1
50
175.0000024
51
264.9400005
0
ARC
8
0
10
236.82707
20
-87.8781114
40
1
50
355.0000024
51
85.0000024
0
ARC
8
0
10
221.0622663
20
-84.49123
40
1
50
175.0000024
51
265.0000024
0
ARC
8
0
10
219.1425067
20
-83.4867564
40
1
50
355.0000024
51
85.0000024
0
ARC
8
0
10
198.0617058
20
-79.6347856
40
1
50
183.3658796
51
265.0000024
0
ARC
8
0
10
195.8813722
20
-76.6273505
40
1
50
3.3658796
51
90
0
ARC
8
0
10
173.8051277
20
-76.6273505
40
1
50
90
51
178.8916758
0
ARC
8
0
10
171.7159039
20
-81.2199381
40
1
50
274.9999976
51
358.8916758
0
ARC
8
0
10
151.0454888
20
-85.0360048
40
1
50
94.9999976
51
183.6643509
0
ARC
8
0
10
150.1168131
20
-101.8283578
40
1
50
284.9999979
51
3.6643509
0
ENDSEC
0
EOF