%TF.GenerationSoftware,KiCad,Pcbnew,7.0.2-0*%
%TF.CreationDate,2023-07-17T19:12:55+02:00*%
%TF.ProjectId,platepcb,706c6174-6570-4636-922e-6b696361645f,v1.0.0*%
%TF.SameCoordinates,Original*%
%TF.FileFunction,Profile,NP*%
%FSLAX46Y46*%
G04 Gerber Fmt 4.6, Leading zero omitted, Abs format (unit mm)*
G04 Created by KiCad (PCBNEW 7.0.2-0) date 2023-07-17 19:12:55*
%MOMM*%
%LPD*%
G01*
G04 APERTURE LIST*
%TA.AperFunction,Profile*%
%ADD10C,0.150000*%
%TD*%
G04 APERTURE END LIST*
D10*
X152811296Y-104212202D02*
X130048039Y-110311598D01*
X129340932Y-111536343D02*
X142630089Y-161132150D01*
X241902228Y-176073465D02*
X250950438Y-160401507D01*
X251080607Y-159988663D02*
X252191308Y-147293286D01*
X230876071Y-144424624D02*
X235656564Y-89783345D01*
X234747525Y-88699995D02*
X218808410Y-87305503D01*
X217899371Y-86222152D02*
X217972000Y-85391990D01*
X217062961Y-84308640D02*
X195836791Y-82451590D01*
X194924283Y-81481333D02*
X194849560Y-78601413D01*
X193849897Y-77627351D02*
X175830746Y-77627351D01*
X174830767Y-78633789D02*
X174859096Y-83033632D01*
X173946273Y-84036266D02*
X153141729Y-85856427D01*
X152232160Y-86933495D02*
X153549202Y-103165403D01*
X130048039Y-110311598D02*
G75*
G03*
X129340932Y-111536343I258819J-965926D01*
G01*
X142630090Y-161132150D02*
G75*
G03*
X143378182Y-161849316I965925J258819D01*
G01*
X241644130Y-176367456D02*
G75*
G03*
X241902227Y-176073465I-607927J793991D01*
G01*
X250950438Y-160401507D02*
G75*
G03*
X251080607Y-159988662I-866026J500000D01*
G01*
X235656564Y-89783345D02*
G75*
G03*
X234747525Y-88699994I-996195J87156D01*
G01*
X217899371Y-86222152D02*
G75*
G03*
X218808409Y-87305502I996194J-87156D01*
G01*
X217972000Y-85391990D02*
G75*
G03*
X217062962Y-84308640I-996194J87156D01*
G01*
X194924283Y-81481333D02*
G75*
G03*
X195836791Y-82451591I999664J25937D01*
G01*
X194849560Y-78601413D02*
G75*
G03*
X193849898Y-77627351I-999663J-25937D01*
G01*
X175830746Y-77627352D02*
G75*
G03*
X174830768Y-78633790I0J-999999D01*
G01*
X173946273Y-84036266D02*
G75*
G03*
X174859096Y-83033632I-87156J996195D01*
G01*
X153141729Y-85856427D02*
G75*
G03*
X152232161Y-86933496I87156J-996195D01*
G01*
X152811296Y-104212202D02*
G75*
G03*
X153549201Y-103165403I-258819J965926D01*
G01*
X241644130Y-176367458D02*
G75*
G03*
X143378181Y-161849319I-69819843J-132759893D01*
G01*
X231785110Y-145507975D02*
X252191308Y-147293286D01*
X230876071Y-144424624D02*
G75*
G03*
X231785110Y-145507975I996195J-87156D01*
G01*
X145120963Y-158450740D02*
X158450740Y-154879037D01*
X158450740Y-154879037D02*
X154879037Y-141549260D01*
X154879037Y-141549260D02*
X141549260Y-145120963D01*
X141549260Y-145120963D02*
X145120963Y-158450740D01*
X140721039Y-142030001D02*
X154050816Y-138458298D01*
X154050816Y-138458298D02*
X150479113Y-125128521D01*
X150479113Y-125128521D02*
X137149337Y-128700224D01*
X137149337Y-128700224D02*
X140721039Y-142030001D01*
X136321116Y-125609262D02*
X149650892Y-122037559D01*
X149650892Y-122037559D02*
X146079189Y-108707782D01*
X146079189Y-108707782D02*
X132749413Y-112279485D01*
X132749413Y-112279485D02*
X136321116Y-125609262D01*
X159632648Y-135881065D02*
X173380135Y-134678316D01*
X173380135Y-134678316D02*
X172177386Y-120930829D01*
X172177386Y-120930829D02*
X158429899Y-122133579D01*
X158429899Y-122133579D02*
X159632648Y-135881065D01*
X158151001Y-118945755D02*
X171898488Y-117743006D01*
X171898488Y-117743006D02*
X170695738Y-103995519D01*
X170695738Y-103995519D02*
X156948252Y-105198269D01*
X156948252Y-105198269D02*
X158151001Y-118945755D01*
X156669353Y-102010446D02*
X170416840Y-100807696D01*
X170416840Y-100807696D02*
X169214091Y-87060210D01*
X169214091Y-87060210D02*
X155466604Y-88262959D01*
X155466604Y-88262959D02*
X156669353Y-102010446D01*
X177924287Y-128027351D02*
X191724287Y-128027351D01*
X191724287Y-128027351D02*
X191724287Y-114227351D01*
X191724287Y-114227351D02*
X177924287Y-114227351D01*
X177924287Y-114227351D02*
X177924287Y-128027351D01*
X177924287Y-111027351D02*
X191724287Y-111027351D01*
X191724287Y-111027351D02*
X191724287Y-97227351D01*
X191724287Y-97227351D02*
X177924287Y-97227351D01*
X177924287Y-97227351D02*
X177924287Y-111027351D01*
X177924287Y-94027351D02*
X191724287Y-94027351D01*
X191724287Y-94027351D02*
X191724287Y-80227351D01*
X191724287Y-80227351D02*
X177924287Y-80227351D01*
X177924287Y-80227351D02*
X177924287Y-94027351D01*
X196830817Y-133131076D02*
X210578303Y-134333825D01*
X210578303Y-134333825D02*
X211781053Y-120586339D01*
X211781053Y-120586339D02*
X198033566Y-119383589D01*
X198033566Y-119383589D02*
X196830817Y-133131076D01*
X198312464Y-116195766D02*
X212059951Y-117398515D01*
X212059951Y-117398515D02*
X213262700Y-103651029D01*
X213262700Y-103651029D02*
X199515213Y-102448279D01*
X199515213Y-102448279D02*
X198312464Y-116195766D01*
X199794112Y-99260456D02*
X213541599Y-100463206D01*
X213541599Y-100463206D02*
X214744348Y-86715719D01*
X214744348Y-86715719D02*
X200996861Y-85512970D01*
X200996861Y-85512970D02*
X199794112Y-99260456D01*
X214515380Y-137522431D02*
X228262867Y-138725180D01*
X228262867Y-138725180D02*
X229465616Y-124977694D01*
X229465616Y-124977694D02*
X215718129Y-123774944D01*
X215718129Y-123774944D02*
X214515380Y-137522431D01*
X215997027Y-120587121D02*
X229744514Y-121789870D01*
X229744514Y-121789870D02*
X230947263Y-108042384D01*
X230947263Y-108042384D02*
X217199777Y-106839634D01*
X217199777Y-106839634D02*
X215997027Y-120587121D01*
X217478675Y-103651811D02*
X231226162Y-104854561D01*
X231226162Y-104854561D02*
X232428911Y-91107074D01*
X232428911Y-91107074D02*
X218681424Y-89904325D01*
X218681424Y-89904325D02*
X217478675Y-103651811D01*
X211054942Y-159282675D02*
X224022700Y-164002553D01*
X224022700Y-164002553D02*
X228742578Y-151034795D01*
X228742578Y-151034795D02*
X215774820Y-146314917D01*
X215774820Y-146314917D02*
X211054942Y-159282675D01*
X228225456Y-165962330D02*
X240176606Y-172862330D01*
X240176606Y-172862330D02*
X247076606Y-160911180D01*
X247076606Y-160911180D02*
X235125456Y-154011180D01*
X235125456Y-154011180D02*
X228225456Y-165962330D01*
M02*
