M48
; DRILL file {KiCad 7.0.2-0} date 2023 July 17, Monday 19:12:57
; FORMAT={-:-/ absolute / inch / decimal}
; #@! TF.CreationDate,2023-07-17T19:12:57+02:00
; #@! TF.GenerationSoftware,Kicad,Pcbnew,7.0.2-0
; #@! TF.FileFunction,Plated,1,2,PTH
FMAT,2
INCH
; #@! TA.AperFunction,Plated,PTH,ComponentDrill
T1C0.0157
; #@! TA.AperFunction,Plated,PTH,ComponentDrill
T2C0.0866
%
G90
G05
T1
X5.9734Y-4.8887
X5.9799Y-4.8394
X6.0037Y-4.9282
X6.0193Y-4.8092
X6.053Y-4.9347
X6.0686Y-4.8157
X6.0924Y-4.9044
X6.0989Y-4.8551
X6.1262Y-5.4592
X6.1327Y-5.4099
X6.1565Y-5.4986
X6.1722Y-5.3796
X6.2058Y-5.5051
X6.2215Y-5.3861
X6.2453Y-5.4748
X6.2517Y-5.4255
X7.6837Y-3.8445
X7.6987Y-3.8919
X7.7067Y-3.8004
X7.7428Y-3.9149
X7.7541Y-3.7855
X7.7902Y-3.9
X7.7982Y-3.8084
X7.8132Y-3.8559
X8.9663Y-6.221
X8.9685Y-6.2707
X8.9999Y-6.1844
X9.0052Y-6.3043
X9.0496Y-6.1822
X9.0548Y-6.3021
X9.0863Y-6.2158
X9.0884Y-6.2655
T2
X6.0361Y-4.8719
X6.189Y-5.4423
X7.7484Y-3.8502
X9.0274Y-6.2433
T0
M30
